<svg width="185" height="106" viewBox="0 0 185 106" fill="none" xmlns="http://www.w3.org/2000/svg">
<path d="M57.4806 20.1578C54.6807 20.333 51.8627 20.5098 49.0292 20.6879L48.7183 13.7994C59.5652 13.4868 70.6404 13.1633 81.8105 12.8385L82.5006 19.7426C76.9075 20.7145 71.2904 21.6903 65.6662 22.6662L68.5533 18.9542C70.3853 42.32 72.2071 65.8032 73.8714 88.1966C74.0236 90.2437 74.072 91.4128 74.0808 92.1723L67.507 91.7254C67.8173 90.6431 67.9531 90.4477 68.1519 89.6173C69.063 85.816 69.2901 83.4577 69.9131 80.6779C72.9406 67.1649 75.7221 54.5132 78.6852 41.2549C81.7374 27.5973 81.0501 34.2217 82.2535 29.5071C84.6056 20.2958 81.9635 27.9919 82.545 24.2969C83.1796 21.4401 83.8189 18.5772 84.4613 15.7112L90.0625 16.7915C88.6711 24.6634 87.2574 32.5586 85.8499 40.413C86.2069 37.7719 86.5658 35.1305 86.9341 32.4619C86.1208 37.1472 84.8395 43.8334 85.9235 35.9399C85.562 37.664 85.2086 39.2707 84.8406 41.0429C85.0999 41.5898 83.7217 49.896 83.796 50.6892C83.8707 51.4811 84.6144 46.8058 84.6272 46.8376C84.8275 47.1898 81.24 66.2773 80.9781 67.6531C80.285 71.2906 80.4028 68.0185 79.9043 71.1284C79.0466 76.477 80.5121 73.0652 78.1406 80.1006C78.0263 83.0398 77.7902 83.2579 77.1477 86.8955C77.0633 87.3744 77.3421 87.0388 77.312 87.2507C76.5387 92.7903 76.855 88.4851 76.8284 88.5102C76.5718 88.7577 76.1926 90.7637 75.867 92.6854L72.8634 92.1274C73.161 90.6575 73.4254 89.2366 73.5497 88.701C77.1334 73.2441 79.7348 61.9137 83.1552 45.5306C83.8943 41.989 85.9304 31.1588 86.687 27.74C87.4333 24.3683 87.3305 26.2376 87.8158 24.492C87.7715 22.3646 88.0044 20.3632 88.7692 17.0839L88.882 16.5059L89.4777 16.4328C90.8031 16.3188 92.3438 16.222 94.1871 16.1304C96.5379 15.3814 96.2725 15.7967 100.869 15.1689C104.696 14.6468 111.314 13.3083 115.591 13.3003C110.746 13.8171 111.274 13.9901 105.842 14.7607C104.557 14.9428 94.6403 16.1061 89.5293 16.8785L89.26 16.9115L89.209 17.1729C88.8631 19.2511 88.7027 20.5501 88.9214 20.1758C89.0862 19.8937 89.3612 18.6393 89.6323 17.2585L89.579 17.3075C91.5213 17.0713 93.6934 16.7522 93.8375 16.7627C95.1368 16.8582 92.4542 17.4656 89.6317 17.7627L90.0814 17.3494C90.0166 17.6534 89.9477 17.9578 89.8753 18.2575C89.9131 17.9668 89.9553 17.654 89.9992 17.3327L89.6221 17.6794C90.1519 17.5834 90.7055 17.4846 91.2201 17.3906C90.5902 17.4329 90.0569 17.4773 89.6039 17.5228L89.8448 17.3015C88.863 21.8019 90.5336 18.5105 88.5574 23.0586C88.29 23.6768 88.1981 23.3976 87.8374 24.4329C87.8532 24.6638 88.2657 23.3916 88.0654 24.5187C87.8608 25.6684 87.1384 27.7839 87.3112 28.156C87.5599 28.7104 88.3824 23.9422 88.4748 23.5896C88.4735 23.5853 88.4722 23.5811 88.4709 23.5769C89.293 20.4601 87.9813 27.0515 87.9505 27.3726C87.7543 29.4539 88.2017 28.0981 87.7615 31.1917C87.5102 32.9566 86.5514 37.3877 86.2525 39.0338C85.9566 40.6696 86.6333 38.1683 86.4468 39.2715C86.2602 40.3747 85.8595 41.7143 85.64 43.0093C85.5466 43.5636 85.7351 43.5725 85.6876 43.8404C85.1796 46.7135 85.1786 44.7612 84.6772 47.3584C84.3529 49.0411 83.567 54.75 84.4588 50.8859C84.1177 52.761 83.7762 54.5877 83.429 56.4517C83.7206 55.2907 84.0025 54.0871 84.2979 52.9566C83.5033 56.4358 83.4962 58.0811 83.0761 60.2773C82.6558 62.4742 81.8826 64.3635 81.5779 66.8119C80.9263 72.038 83.3248 59.2563 83.7146 57.6881C83.8668 57.0769 83.6819 59.5043 83.6165 59.8708C83.3256 61.498 82.7275 63.3716 82.4843 64.6222C81.6151 69.0995 81.339 71.8929 80.5331 76.1646C79.5358 81.4503 78.4405 87.1957 77.3195 93.0289L71.3844 91.9263C73.0214 81.6495 74.7283 71.1008 76.1798 62.292C77.0292 57.1391 77.8679 54.0942 78.2503 51.7818C79.1448 46.372 78.9833 45.6633 79.7672 40.9452C80.9332 33.9227 82.8465 24.0754 83.89 18.2255C84.037 17.4012 84.1689 16.5907 84.2872 15.8136L90.1861 16.9513C89.5853 19.9677 89.216 22.4822 89.0407 23.3161C85.9868 37.8689 82.1512 55.5464 79.5458 67.5893C78.3205 73.2531 77.4428 75.8791 77.1981 77.0503C76.1458 82.0856 76.69 80.7923 75.7817 84.8625C75.2912 87.0613 74.9598 87.4207 74.8866 87.7132C74.2447 90.2906 74.449 90.8758 74.0208 92.9025C74.005 92.9771 73.9893 93.0517 73.9735 93.1262L67.4842 92.685C66.5103 80.8947 65.8353 69.5095 64.9579 57.8224C64.894 56.969 65.0428 57.0336 64.9925 56.4815C64.773 54.1111 64.6337 55.2318 64.4246 52.753C63.9887 47.5976 63.6142 42.2982 63.2177 36.8276C63.1784 36.2857 63.3432 36.028 63.247 34.7888C63.1505 33.5479 62.9032 32.6206 62.7615 30.6715C62.4914 26.9575 62.3214 23.2715 62.091 19.4565L61.8973 16.7208L64.5624 16.2791C65.9639 16.0617 67.3822 15.8344 68.8247 15.5883C69.7065 15.4375 70.7611 15.0301 72.0839 14.8039C74.7604 14.3462 78.2798 13.8247 81.3957 13.3492L81.9929 19.324C80.2569 19.3386 78.6441 19.3569 77.3631 19.3903C67.4573 19.65 58.1931 19.995 48.9008 20.2862L48.6266 14.211C50.4934 14.089 52.3613 13.9691 54.2359 13.8523C56.8656 13.689 59.2084 13.7494 60.577 13.6692C63.326 13.5078 61.7681 13.451 63.607 13.3026L66.5178 13.1417L66.7964 16.002C66.8239 16.2259 66.8549 16.5004 66.8904 16.8396C68.3697 30.994 69.8234 45.1817 71.2872 59.4172L71.6098 62.7296L68.3227 62.707C56.9151 62.6902 45.4767 62.6767 33.9983 62.6836C33.5993 62.6838 33.1969 62.6843 32.7913 62.6851L35.119 57.9001C41.2598 65.6946 48.6809 74.8556 54.4639 82.3124C56.9663 85.54 57.2124 86.2889 58.9933 88.5626C60.2857 90.2119 61.1927 91.2768 62.0415 92.2461L56.851 94.6444C56.3782 92.8251 55.9248 91.2435 55.2632 88.0876C54.3736 83.8424 53.7214 78.903 52.8026 74.4852C51.8838 70.0673 51.1421 68.0932 50.0714 63.0214C49.1898 58.8441 48.1521 52.9725 47.2031 48.4222C44.9292 37.5211 42.6702 26.6623 40.4258 15.8175L47.0057 15.7158C42.0564 45.3108 37.0439 74.7717 31.7657 104.628L25.1908 103.765C25.3056 102.593 25.3787 101.362 25.4212 100.103C25.7145 85.4903 23.3007 68.6949 22.4031 53.0488C22.3156 51.5766 22.8096 53.7989 22.375 49.0882C22.1542 46.5545 21.5941 43.0354 21.3401 37.1197C21.1041 31.1846 21.0592 25.1189 21.6024 18.9686C21.6845 18.0531 21.7648 17.2308 21.8432 16.4961C21.8918 16.0374 21.9427 15.5853 21.9914 15.1832C22.0159 14.9808 22.0402 14.787 22.0644 14.6016C22.0878 14.4213 22.1278 14.1237 22.1593 13.908C22.2328 13.4174 22.2648 13.1783 22.3957 12.5246C22.4239 12.3895 22.4533 12.2596 22.4855 12.1307C22.5244 11.9868 22.5268 11.9379 22.6556 11.5585C22.7143 11.3967 22.7821 11.2193 22.9173 10.9729C22.9865 10.8492 23.0734 10.7065 23.2089 10.5338C23.2771 10.4475 23.358 10.3536 23.4597 10.2525C23.5127 10.2001 23.5595 10.1559 23.6358 10.0907C23.7837 9.96534 23.9685 9.83137 24.2052 9.70891C24.6657 9.45962 25.4059 9.29128 26.0861 9.42025C26.77 9.53921 27.2755 9.87445 27.5766 10.1481C28.1696 10.7099 28.2853 11.1045 28.381 11.3034C28.4498 11.4718 28.4919 11.6064 28.5266 11.7286C28.8841 13.3869 28.7978 13.8446 28.867 14.8543C28.9845 18.2339 28.9174 21.5438 28.8296 24.8643C28.6366 31.5168 28.2567 38.1358 27.7291 44.7689C26.5018 58.0408 25.5498 71.2961 21.1019 84.3715C20.3581 86.2052 19.7749 87.8098 18.3044 89.7506C18.0984 90.0057 17.881 90.2459 17.6418 90.4712C17.3496 90.747 16.9778 91.0386 16.5564 91.2625C15.6988 91.8182 13.8457 91.9213 12.8006 91.1968C10.9525 89.9001 10.7757 88.8606 10.2759 87.8602C4.85044 66.6529 5.66879 46.339 4.99458 25.8409C4.96315 23.6668 4.93713 21.7648 4.7721 20.1089C4.74929 19.8711 4.69886 19.7302 4.76614 19.988C4.7986 20.0813 4.84014 20.2713 5.07702 20.6612C5.30491 20.9947 5.87681 21.9039 7.41233 22.1518C8.14057 22.2567 8.88081 22.0679 9.34599 21.822C9.72915 21.6187 9.85331 21.5054 10.0259 21.3595C10.3338 21.0832 10.476 20.8739 10.5776 20.7217C10.9232 20.1303 10.8172 20.2182 10.8334 20.2266C10.8219 20.273 10.7788 20.453 10.7311 20.7036C10.6964 20.8882 10.664 21.076 10.6265 21.3067C10.5913 21.5231 10.5442 21.8291 10.5146 22.0369C10.4842 22.2482 10.4529 22.474 10.4207 22.7132C10.3565 23.1898 10.2864 23.744 10.2345 24.1787C9.77051 28.0792 9.39653 32.0909 9.02636 36.0389C8.29065 43.9842 7.60401 51.8226 6.87182 59.5276C5.41472 74.9594 3.78345 89.8501 1.76298 103.914C1.44985 106.065 0.71982 104.893 0.585649 103.507C0.840917 102.2 1.11092 101.142 1.39176 99.8072C0.49991 98.1317 0.739684 98.4062 1.27776 92.3051C1.61561 88.4951 0.961163 91.4897 0.986026 89.4962C1.0173 86.8689 1.45516 74.6347 1.9427 77.0355C1.8855 76.2716 1.82921 75.5616 1.77402 74.8086C2.36104 65.9787 2.8912 57.3473 3.44765 48.715C3.54578 47.2019 3.34285 47.1133 3.4447 45.5812C3.72408 41.4087 4.15944 38.1599 4.55793 33.9036C4.78622 31.5139 4.56718 31.2275 4.91256 28.1857C5.28547 25.0992 5.54966 25.2543 5.80574 21.0505C5.52037 22.0384 5.50706 20.9745 6.06492 18.723C6.08987 18.6416 6.15109 18.4563 6.22351 18.2998C6.3105 18.1318 6.37242 17.9359 6.72749 17.6077C6.77403 17.5673 6.82697 17.5256 6.88825 17.4837C6.95253 17.4418 7.00249 17.4041 7.16549 17.3298C7.44783 17.1985 7.88644 17.1357 8.26247 17.2375C9.04109 17.4683 9.24316 17.9136 9.37138 18.1176C9.61617 18.6423 9.54996 18.5966 9.59181 18.7162C9.63607 18.9015 9.6659 19.0827 9.69303 19.2895C9.7062 19.3903 9.71952 19.509 9.7296 19.6108C9.73594 19.6757 9.74203 19.743 9.7479 19.8132C9.79511 20.3554 9.82844 21.2092 9.83901 21.7564C9.87087 23.2229 9.86081 24.3431 9.84912 25.8409C9.83265 27.3973 9.82537 28.8533 9.836 29.8505C9.83918 30.4675 10.2448 35.5695 10.2477 38.2719C10.2463 40.9899 10.09 45.1187 10.3567 49.3092C10.4829 51.2883 10.8116 52.4554 10.9149 54.5821C10.9872 56.0544 10.814 57.8734 10.9039 59.7586C10.9865 61.6448 11.4614 65.6875 11.5274 66.4472C11.7441 69.1085 11.3392 66.1882 11.472 68.0078C11.8162 72.4526 12.2382 77.2583 13.1234 81.8258C13.5243 83.9579 14.3461 86.815 15.0467 87.439C15.086 87.468 14.9735 87.3691 14.7711 87.3566C14.5723 87.3424 14.4608 87.4174 14.5052 87.3897C14.6057 87.3324 14.9014 87.018 15.1446 86.6456C15.652 85.8872 16.1204 84.8768 16.4918 83.9699C16.8712 83.03 16.133 84.2398 16.1807 84.1018C16.3729 83.6093 16.5494 83.1251 16.7081 82.6746C18.1556 78.0103 17.3996 80.9311 18.0923 79.307C19.0373 77.6364 21.3237 63.8648 20.8574 63.6815C21.3782 63.319 21.4308 60.189 21.5079 59.3842C21.8195 56.2615 22.1478 56.9077 22.338 53.8587C22.4048 52.7371 21.9195 54.8849 22.0474 53.6857C22.3595 50.7247 23.0287 48.0929 23.3621 44.1289C23.4414 43.1677 23.2712 42.8682 23.3908 41.1478C23.524 39.4628 24.125 32.3046 23.5496 35.5972C24.0863 31.2635 23.9525 30.3968 24.099 25.3453C24.1306 24.0621 24.4825 22.4421 24.393 19.7094C24.3595 18.8173 24.0639 18.8305 24.0453 17.4516C24.0124 15.9156 24.0721 14.2755 23.9572 13.0344C23.9561 13.0179 23.957 13.014 23.9643 13.03C23.9681 13.038 23.9735 13.0511 23.9821 13.071C23.9972 13.0988 23.976 13.0803 24.0855 13.2785C24.1917 13.4229 24.4079 13.8937 25.2674 14.0835C26.1488 14.2688 26.8579 13.5675 26.8025 13.6007C27.0139 13.3761 27.0522 13.2595 27.0833 13.1977C27.1332 13.067 27.0808 13.1868 27.0727 13.2112C27.0555 13.2573 27.035 13.3223 27.0128 13.4035C26.9089 13.8109 26.8446 14.1211 26.7649 14.5683C26.6795 15.0694 26.6232 15.4262 26.5604 15.8853C26.5007 16.3175 26.4285 16.9453 26.3877 17.3423C26.3252 17.949 26.2623 18.6232 26.1987 19.3686C25.6286 26.1678 25.9456 33.4312 26.2429 40.5496C26.3378 42.6625 26.002 42.166 26.1959 45.2491C26.2231 45.7083 26.7477 49.4081 26.9013 51.5457C26.9816 52.8309 27.3907 59.5129 27.5072 60.8576C27.6918 63.0878 28.0195 63.4495 28.0788 64.678C28.2509 68.2152 27.5556 65.4328 28.543 69.6145C28.3533 71.047 28.6178 73.5186 28.2924 74.3538C28.8605 75.7476 28.615 77.6653 28.9964 80.4625C29.3782 83.2589 30.3873 85.5177 29.5205 86.2494C29.7396 87.5673 30.2172 93.1811 30.2353 94.1325C30.3412 96.9437 30.06 95.4443 30.1115 97.5702C30.1124 97.9405 30.3083 97.548 30.2475 99.9592C30.2291 100.485 30.1903 102.196 30.0024 104.207L27.003 103.813C27.6654 99.9904 28.5429 94.9198 28.6344 94.4784C30.2108 86.868 28.0896 98.6792 27.9907 100.366C27.8923 100.65 27.7943 100.931 27.6931 101.235C27.0339 104.604 27.7482 102.744 28.0999 101.226C28.4516 99.7072 28.7704 96.8122 29.1149 95.5589C29.287 94.9346 29.681 95.4071 29.2967 97.3185C29.7905 95.2874 29.4603 98.12 29.733 97.33C30.0323 96.4613 31.6575 87.2325 31.4116 87.14C31.1076 88.8637 30.7491 91.0123 30.4402 92.755C29.608 94.9608 29.2845 87.773 30.9745 81.5209C32.1994 76.9856 31.2462 84.6446 32.7459 73.675C32.4412 75.3492 32.1572 76.761 31.878 78.2817C31.5189 78.3873 32.3062 75.9773 32.4188 74.6845C32.472 74.0634 31.5918 77.7971 32.0742 74.5072C33.0302 71.7704 32.9244 69.5206 33.7272 64.7943C33.587 66.122 33.4462 67.4512 33.306 68.7789C35.0156 60.8531 31.9563 79.4184 34.8048 63.925C34.5004 65.796 34.1784 67.6542 33.8804 69.5362C34.21 68.6557 34.4712 70.1996 34.7185 69.4033C35.3671 67.3146 35.7374 64.1234 36.2082 61.5211C36.4138 60.3822 36.4306 61.1132 36.4478 61.0175C36.7303 59.4579 36.4693 59.7683 36.6909 58.3955C36.9699 56.6678 38.0185 51.7195 38.1343 50.9079C38.4347 48.8084 37.4408 52.2197 37.4454 52.0133C37.4803 50.648 38.1059 47.954 37.8289 48.0538C36.8826 54.6313 33.4313 73.4634 35.934 56.3205C34.7208 60.9572 34.3908 59.5018 35.5042 52.727C36.4248 47.1226 36.0323 50.7734 36.7787 47.9018C36.8741 47.5304 38.2753 40.053 38.1657 39.639C38.518 40.0085 39.2928 37.6297 39.4291 39.3382C39.4493 39.5883 38.8988 42.661 39.4173 41.6447C39.6773 41.1367 40.3069 39.659 40.4785 39.9439C40.4379 39.2859 40.3835 38.5957 40.3381 37.927C41.0834 33.3088 41.3558 32.6812 42.0648 30.2077C41.9292 30.3029 41.0437 32.549 41.7969 29.0372C41.8368 28.8572 42.0384 28.7302 42.4326 26.9479C43.2278 23.3452 43.4116 22.5963 43.4479 25.4721C44.066 20.7638 44.6281 18.3941 45.2419 15.4141L42.1793 15.4614C42.4864 17.2869 42.8572 19.3298 43.5093 22.2183C43.7693 20.9737 43.4341 19.1626 42.5941 15.3772L44.8248 15.3427C44.6304 16.6163 44.4093 18.1131 44.1397 19.8803C43.9303 20.1602 43.7503 20.2774 43.5377 20.5666C44.121 17.7922 44.4578 16.251 44.6586 15.3143L42.7593 15.3437C43.1175 17.5829 42.9624 16.3886 43.9413 20.0667C44.2821 21.3471 45.6025 28.275 45.5758 25.8789C45.5692 25.3134 44.6853 21.0223 44.9492 21.4814C44.9997 21.5703 46.1391 26.7738 46.1902 27.2425C46.8404 33.1239 44.3804 22.8773 47.8006 38.7433C47.8952 39.1804 48.1175 39.2955 48.318 40.1465C48.6945 41.7467 48.4774 41.8119 48.8205 43.2396C49.1639 44.6681 49.8664 46.6015 50.0305 48.8205C50.3328 52.8773 48.1501 43.6063 47.572 39.397C46.5748 37.8431 52.5889 67.5329 53.0185 69.3609C54.8936 77.3435 52.0384 64.0059 52.0802 63.2803C52.0989 62.9788 53.1015 62.9234 51.7828 59.6693C51.3924 58.7067 51.995 62.9392 51.385 60.4645C50.7747 57.9885 51.2623 58.9197 51.2455 58.7345C51.188 58.0995 50.5424 55.4655 50.5131 55.1127C50.054 49.6884 51.085 49.985 51.1342 57.2886C52.0667 60.2847 51.1369 53.1619 52.1203 56.9216C53.3157 61.4913 53.5567 64.9551 53.6548 65.5405C54.8323 72.5532 53.8497 64.3908 55.3701 72.9397C56.2167 77.6997 53.4992 65.9388 55.7382 76.7467C57.6128 85.7933 56.8455 80.858 57.492 81.4115C57.6435 81.5424 58.7981 86.4732 57.3735 79.7288C57.2012 79.5654 56.9519 79.2408 56.7416 78.8371C56.5027 77.1603 56.6105 74.262 56.4553 73.3782C55.6938 69.0577 55.3888 69.3357 55.2829 66.7181C55.2033 68.619 54.8745 65.6183 54.5556 64.532C53.374 60.4977 54.3376 65.9065 52.9138 56.6017C52.948 57.8452 52.9628 58.9731 52.9901 60.1783C52.7584 59.0746 52.5265 57.97 52.2948 56.8664C52.4217 55.1239 51.1703 49.2642 52.715 54.4869C51.5486 48.0661 50.923 45.5019 50.2793 44.1738C50.1567 43.9215 49.9342 42.9664 49.6983 41.8388C49.6407 42.0729 49.3841 42.4094 49.3097 42.2393C48.65 40.7164 48.7305 38.1312 49.1232 38.9272C48.9735 38.1355 48.859 37.5079 48.8196 37.2862C48.57 35.8803 49.3276 38.5819 49.1662 37.4341C49.1126 37.0559 48.2686 33.1233 48.3347 33.0306C48.7613 32.4493 49.7011 39.0119 47.3601 25.9254C46.8201 25.7076 48.1533 31.7359 47.3321 30.2851C46.4501 28.7276 46.488 25.1777 45.6705 24.5697C45.724 24.2712 45.7906 24.1304 45.867 23.867C44.5065 18.6566 45.0475 18.474 44.8431 16.8393C44.7884 16.3998 44.6846 15.7458 44.552 14.9796L42.8555 15.0058C41.9015 19.7494 40.4153 28.9452 42.745 17.8344C42.4686 19.7406 42.1595 21.6822 41.8791 23.5779C40.8043 23.8378 41.3994 22.756 39.6905 31.8259C39.314 33.8233 38.7621 34.4001 38.949 36.4542C38.4817 36.0996 37.778 42.0776 37.6211 42.6199C36.6096 46.0971 38.2988 32.8324 39.4945 31.2991C39.5217 29.0158 39.9871 29.1037 40.3497 26.6113C40.8737 23.011 40.868 22.4976 41.9405 18.3005C42.1718 14.0285 38.9216 34.6629 40.4128 22.0722C40.5992 20.4989 40.9507 17.9867 41.4287 14.7618L45.9706 14.6916C49.8849 31.9826 57.93 70.2787 62.7745 93.4415L57.2862 95.9773C53.0456 90.6371 49.6061 86.3011 47.5121 83.6634C40.8653 75.2906 35.2975 68.2813 30.1541 61.7956L25.883 56.4106L32.7913 56.3744C44.9638 56.3112 55.6788 56.271 68.3227 56.2644L64.8794 60.0856C64.4804 56.2802 64.0662 52.2987 63.6273 48.0478C63.3432 45.3008 61.1331 24.5697 62.1486 28.8202C62.2944 29.4308 63.44 38.3274 63.0862 30.6309C62.9863 32.2144 62.3467 27.7338 62.2797 27.3595C61.0771 20.6067 61.0479 22.2678 60.3969 16.6696L64.0061 19.7244C62.4761 19.8377 60.4068 19.9745 57.4806 20.1578ZM81.0004 17.9728C63.1207 18.346 76.2641 18.3567 72.5749 19.3199C74.8692 19.2578 77.1551 19.1958 79.4493 19.1337C78.8452 19.0968 78.2488 19.0598 77.6446 19.0229C77.642 19.023 77.6394 19.0231 77.6368 19.0231C78.7554 18.6731 79.8819 18.3228 81.0004 17.9728ZM85.6053 47.9788C85.5778 48.685 85.5522 49.3834 85.5107 50.1463C85.0078 52.4551 84.5072 54.7553 84.0043 57.0641C83.985 56.7726 83.9629 56.4902 83.9436 56.1986C84.5011 53.4597 85.0571 50.7294 85.6053 47.9788ZM46.9524 36.9707C46.5947 33.63 46.105 34.0373 45.4711 29.6311C45.1738 30.2471 44.8973 30.9205 44.6098 31.5643C45.343 34.8672 45.6503 35.5892 46.2824 39.2104C46.3277 38.7647 46.3717 38.309 46.4197 37.8727C46.2699 37.2788 46.1086 36.6472 45.9659 36.0716C46.1431 35.0736 47.3661 40.8168 46.9555 36.982C46.9545 36.9783 46.9534 36.9745 46.9524 36.9707ZM42.9491 27.4506C42.5926 29.2149 41.191 36.2062 41.196 37.1938C41.2132 40.5414 44.2403 20.658 42.2507 35.3538C42.3426 35.3006 42.4099 35.3809 42.4895 35.3946C42.9735 32.7347 43.4523 30.0821 43.9339 27.4021C43.5923 27.4916 43.2956 27.3423 42.9491 27.4506ZM67.2704 33.5694C67.5128 36.3242 69.1524 49.4061 69.0728 45.0942C69.0488 43.8255 67.9144 38.0272 67.705 35.8001C67.5694 34.358 68.0251 35.9427 67.6229 33.1103C67.5094 33.2491 67.3771 33.3414 67.2721 33.577C67.2716 33.5745 67.271 33.5719 67.2704 33.5694ZM65.0612 28.5868C65.409 31.4249 65.7745 34.3004 66.1275 37.1575C66.2368 35.034 65.5978 30.9457 66.0331 30.6559C66.1497 31.4354 66.2652 32.206 66.3818 32.9855C66.3436 33.5955 66.3044 34.1963 66.2653 34.7966C66.7717 37.2273 66.7407 35.7263 67.1457 40.3089C67.5532 37.4701 67.8731 36.9173 66.3517 29.1561C66.8837 30.5965 67.9689 29.0753 66.6366 24.8245C66.3886 24.029 66.6334 27.4333 66.6115 27.4747C66.3428 28.0302 65.9402 26.1692 65.6934 26.761C65.5815 27.0268 65.7995 29.0964 65.6402 29.4259C65.5616 29.5785 65.0894 27.6379 65.0612 28.5868ZM66.1085 22.7482C66.3961 23.6079 66.5468 20.5517 66.1802 17.95C65.6092 13.8932 65.8374 20.3614 66.1085 22.7482ZM85.608 47.9634C85.6071 47.9685 85.6062 47.9736 85.6053 47.9788C85.6054 47.9761 85.6055 47.9735 85.6056 47.9709C85.6064 47.9684 85.6072 47.9659 85.608 47.9634ZM44.7378 18.345C44.5453 20.4624 43.9922 23.551 44.2934 23.3674C44.0681 24.3747 43.8417 25.3934 43.6163 26.4007C43.6968 26.4046 43.7791 26.3989 43.8587 26.4027C44.4309 23.3536 45.0016 20.3137 45.5745 17.2648C45.2981 17.6121 45.0257 17.9306 44.7378 18.345ZM38.8559 51.6232C38.1719 55.4618 39.0798 52.3008 39.1078 53.1738C39.1357 54.0468 38.4099 57.4465 38.7258 57.0862C39.1225 54.8256 39.5358 52.4678 39.9366 50.1783C39.5645 50.7362 39.2185 51.1111 38.8546 51.6309C38.855 51.6283 38.8555 51.6258 38.8559 51.6232ZM67.4185 74.1536C67.2918 71.5108 67.6507 72.5654 66.9237 67.3841C66.924 67.388 66.9243 67.3919 66.9246 67.3958C67.0841 72.3674 67.3789 78.7607 68.022 84.2114C68.0525 80.8445 67.6189 78.3123 67.4185 74.1536ZM47.9947 46.1975C48.4314 47.2484 47.5754 42.1151 47.1478 41.0311C46.4558 39.2769 47.3303 44.5959 47.9947 46.1975ZM85.5231 26.6407C85.5158 30.5297 87.3497 23.9948 88.3968 16.5095L86.1124 16.0689C86.0445 16.4328 85.9783 16.799 85.9143 17.1665C85.8682 17.4319 86.0377 16.8355 86.2501 16.0987L88.2579 16.486C87.9782 17.6533 87.6089 19.169 87.6854 18.237C87.6924 18.154 87.8367 17.31 87.9725 16.4376L86.533 16.16C86.3822 16.9041 86.2367 17.6694 86.2105 17.9948C86.154 18.699 86.5227 18.0265 86.3692 19.1674C86.0991 21.1692 84.8462 25.5538 84.7322 27.0711C84.7177 27.2711 85.6 24.5748 85.6483 24.404C86.4342 21.6093 86.653 18.7996 86.7453 18.3614C87.0501 16.9145 87.2492 16.562 87.4035 16.3486L87.0943 16.2889C87.0136 16.412 86.9449 16.4911 86.8851 16.6931C86.5714 17.7547 86.3786 19.6845 86.3462 19.8171C85.727 22.3202 86.3241 18.7311 86.7132 16.2244L87.7813 16.4304C87.6001 17.3261 87.4523 18.0827 87.4197 18.3682C87.0883 21.271 87.9222 18.6976 86.6065 25.5469C86.4814 26.1971 84.7863 33.9395 87.2278 24.2487C84.5385 39.215 87.5022 25.2558 89.2183 16.7417L85.2635 15.9789C84.8781 18.473 84.5769 20.503 84.4907 21.219C84.3147 22.685 84.9683 20.5308 84.9453 21.434C84.8933 23.4966 84.3631 26.9374 84.8224 26.6996C85.7909 26.1826 85.993 21.5799 86.6632 18.4979C86.7939 18.8553 86.9542 19.0106 87.0339 19.6455C86.9466 18.674 85.5218 26.3446 85.5214 26.6404C85.5219 26.6405 85.5225 26.6406 85.5231 26.6407ZM79.9037 54.8117C78.7148 59.0618 79.3167 58.8731 78.1558 62.7511C77.8835 66.3338 79.3375 59.4657 79.5377 58.6725C80.4495 55.0496 80.9546 55.2469 81.6024 51.4784C81.0149 52.6943 80.4755 53.6721 79.9037 54.8117ZM88.2369 17.4109C88.0168 19.2457 88.3676 17.9252 88.6858 16.6263L85.8007 16.0699C85.6451 16.859 85.501 17.6397 85.4679 17.7155C85.1783 18.391 85.2358 17.3958 85.4242 16.0061L89.059 16.7072C88.4905 19.8244 87.1626 24.923 88.2369 17.4109ZM67.9538 50.7525C68.0904 52.2433 68.2563 51.271 68.4713 52.5757C68.6872 53.8824 68.93 58.4021 69.0828 58.2725C69.2355 58.1392 68.8036 49.8557 69.7589 58.1159C69.8222 57.8261 69.9011 57.9133 69.9706 57.7692C69.7359 55.4959 69.5007 53.2018 69.266 50.9285C69.1298 52.2038 68.983 53.5117 68.8506 54.7379C68.5055 53.4832 68.7025 52.7373 68.6955 52.6696C68.6952 52.6697 68.6949 52.6697 68.6946 52.6697C68.4251 50.2932 67.6466 47.4048 67.9538 50.7525ZM65.0696 37.2494C65.7678 37.6439 64.7533 34.1822 64.5588 32.744C64.3646 31.306 64.4559 29.3019 64.2284 30.0699C64.213 32.4218 64.9918 37.2067 65.0705 37.2493C65.0702 37.2493 65.0699 37.2494 65.0696 37.2494ZM74.8379 78.2027C74.214 81.8458 74.5072 81.3094 73.3579 85.6827C73.5522 85.5456 73.7499 85.4094 73.9418 85.2718C74.7046 81.7656 74.1948 81.9133 75.2572 77.8955C75.4317 77.2369 75.4877 78.7402 76.0208 75.7128C75.637 76.5443 75.2293 77.3827 74.8379 78.2027ZM68.9236 89.0298C69.0397 90.4195 69.2862 91.704 69.5224 92.5266L71.9755 92.6934C71.9885 91.5452 71.7808 91.1986 71.4312 92.5755L70.0777 92.4834C70.0465 91.7442 69.9181 90.5459 69.6445 88.767C69.4673 87.6199 68.6577 85.8521 68.9236 89.0298ZM59.342 16.0597C66.5432 15.6497 58.352 15.9484 56.4655 15.8652C73.214 14.6639 54.577 16.0375 52.8638 15.4774C50.8277 15.7938 47.0222 16.4644 51.2869 16.3156C53.0661 16.2532 52.4053 16.0958 52.5121 16.09C55.7859 15.9356 55.4099 16.2837 59.342 16.0597ZM81.493 47.3236C81.4449 47.5917 81.7547 47.223 81.6154 48.0784C81.4755 48.9347 80.9065 50.8184 81.0002 51.0375C81.0948 51.2561 82.0329 47.4337 82.1896 46.2327C82.3452 45.0326 81.9293 44.9008 81.493 47.3236ZM75.0918 74.2579C74.4869 77.8138 76.5435 72.2302 76.7057 71.4633C78.1211 64.725 75.3048 74.5129 75.0918 74.2579ZM54.9571 16.1983C46.2784 16.8632 52.6563 17.4148 58.1123 17.6991C58.8288 17.59 59.5638 17.4802 60.2705 17.3721C57.0195 18.0043 51.3104 18.6995 64.0318 17.8702C57.0579 17.9392 62.8906 17.6298 62.9346 17.598C63.6746 16.5839 53.3625 17.3353 54.9649 16.1981C54.9623 16.1982 54.9597 16.1982 54.9571 16.1983ZM84.2056 35.9197C85.0035 32.2207 86.9185 22.5701 85.5239 26.964C85.0837 29.9527 84.6458 32.9311 84.2056 35.9197ZM58.0629 93.2578C58.3727 93.7251 58.6841 94.1811 59.0004 94.6323L60.6393 93.8751C60.2748 91.404 59.7765 88.9768 59.1419 85.9187C59.4721 89.3542 58.9826 87.1518 58.6659 86.0352C58.1865 84.3413 59.0434 88.5064 59.022 88.5229C58.6713 88.5148 58.0795 85.868 59.3161 91.9163C58.8956 90.4443 58.4781 88.9921 58.0584 87.52C58.7385 90.9264 58.9175 92.4341 59.096 94.1885L60.2392 93.6603C59.9036 93.1324 59.5541 92.5768 59.1278 91.9179C60.3925 94.609 58.3654 91.3497 55.9674 88.8306C54.7702 87.5736 57.1913 91.942 58.0701 93.267C58.0677 93.2639 58.0653 93.2609 58.0629 93.2578ZM51.6887 18.0782C52.5742 17.9029 53.3814 17.6901 54.2366 17.4995C55.1773 17.4279 56.1198 17.3578 57.0605 17.2863C57.1835 17.3849 57.2875 17.4897 57.4297 17.5831C58.6723 17.5368 58.1796 17.4194 58.5474 17.3826C58.5474 17.3832 58.5475 17.3838 58.5475 17.3843C60.7164 17.1688 62.3598 17.0229 63.8325 16.9306L63.181 16.3792C63.4014 18.4814 63.4971 20.2383 63.5585 22.6896C63.8819 22.6559 64.2053 22.6222 64.5287 22.5884C64.4011 21.6638 64.2732 20.7294 64.1464 19.8047C63.9212 19.3296 63.6956 18.8525 63.4704 18.3774C63.4603 17.7 63.4503 17.0266 63.4403 16.3521L63.8163 16.6703C63.4119 16.6594 63.0071 16.6485 62.6009 16.6375C61.7416 16.7539 60.7084 16.8843 59.9651 16.9918C56.778 16.5237 61.1746 16.4028 63.7884 16.2221L63.8784 16.2171L63.8871 16.3055C63.9934 17.2604 64.0978 17.9755 64.2009 17.9883C64.2665 17.997 64.2419 17.3127 64.1645 16.2766L64.1301 15.9238L63.7711 15.9437C60.8967 16.0377 55.3122 16.4233 54.2788 16.6107C54.0765 16.6478 56.245 17.1911 52.6233 17.0629C52.1008 17.0441 51.8145 15.8097 48.7836 16.7366L48.8297 17.7568C49.0869 17.6876 49.364 17.6038 49.6629 17.5034C49.9469 17.4084 49.5599 17.1341 48.8047 16.8708L48.8386 17.6212C49.5519 17.8431 50.5858 18.0443 51.6887 18.0782ZM64.7711 39.9505C65.1275 34.3402 66.2651 54.791 66.1157 45.9306C66.8049 48.3908 66.7509 47.9265 66.8675 45.3633C66.8784 45.1377 67.1779 46.8689 67.1774 46.7193C67.1407 44.3374 66.733 41.5057 67.1119 41.4466C67.0251 40.8107 66.9444 40.2123 66.8575 39.5764C66.7759 42.2719 66.0938 38.0702 65.6204 36.4673C65.4055 35.7372 65.5417 37.4527 65.3563 36.839C65.2883 36.6115 65.1265 34.213 64.9906 34.1279C64.6851 33.9544 64.4576 35.4954 64.5134 38.0611C64.5131 38.0611 64.5128 38.0611 64.5126 38.0612C64.5977 38.697 64.6851 39.3147 64.7711 39.9505ZM68.0705 48.7438C67.6275 49.7244 67.7728 53.5057 66.9575 46.2827C66.8837 46.649 66.8115 47.0258 66.7377 47.3922C66.8416 48.6128 66.9425 49.7954 67.047 51.0354C68.857 54.6403 67.6691 61.5691 68.4093 57.1328C68.4896 56.6486 68.1335 53.7617 68.6741 56.5972C68.6741 56.5933 68.674 56.5894 68.674 56.5855C68.2659 52.5997 68.044 52.1107 68.0705 48.7438ZM65.633 22.0408C63.8311 12.9143 66.0163 34.8158 66.0196 31.1284C66.0201 30.7967 65.0522 21.3641 65.633 22.0408ZM70.254 88.6797C69.8449 90.5276 69.7306 91.6131 69.7552 92.2124L71.7873 92.3506C71.555 91.6767 71.3316 91.7168 71.2346 91.9518C71.2021 92.0305 71.1898 92.1886 71.1915 92.3969L70.3393 92.3389C70.6013 91.4371 70.8841 89.4764 70.9749 89.1861C71.338 88.0309 70.8676 90.546 71.3467 89.0478C71.5045 88.5514 73.2366 81.5451 73.2819 81.2167C73.5331 79.3931 72.491 81.9129 72.5479 81.388C72.7324 79.6769 73.4709 77.4592 73.324 76.9195C73.0127 75.7579 72.6599 80.1144 72.5142 80.8315C72.0723 82.9945 71.8104 82.7405 71.3998 84.3431C70.9895 85.9445 70.8646 87.0221 70.5346 88.442C70.4248 88.9144 70.3004 88.4749 70.254 88.6797ZM70.024 82.3197C70.8028 86.5982 70.469 76.0593 70.2684 74.8217C69.675 71.1806 69.6519 80.2709 70.024 82.3197ZM64.7368 26.0004C64.0055 22.0985 64.7022 31.2933 65.1048 33.9009C65.1874 33.4009 64.9885 27.3427 64.7368 26.0004ZM57.3678 16.1322C53.7349 16.3349 58.5767 16.9256 61.6094 16.8288C63.374 16.3014 61.7036 16.4431 59.7201 16.4793C57.739 16.5153 60.202 15.9742 57.3678 16.1322ZM80.2845 44.8848C80.1109 45.6501 77.8191 58.094 79.5179 51.0268C79.6472 50.4877 81.4536 41.8208 81.5238 41.1495C81.6644 39.7984 80.7334 42.9127 80.2845 44.8848ZM74.7863 14.9365C72.8733 15.4035 70.9796 15.4512 72.7624 15.8863C72.765 15.8862 72.7675 15.8861 72.7701 15.8861C67.9045 16.1715 67.6608 15.1858 66.6115 15.2365C62.9416 15.4143 66.4405 16.0224 64.1438 16.319C69.4937 15.9504 67.971 16.4696 72.0448 16.3852C72.9588 16.366 76.6075 15.9789 77.1372 15.7867C77.6658 15.5945 75.7836 15.1159 74.7863 14.9365ZM83.9662 27.4026C82.9078 31.5411 82.7346 35.5027 84.0919 29.7382C84.7545 26.9264 84.6122 24.8758 83.9662 27.4026ZM39.5879 33.1224C39.8707 32.5099 40.1562 31.8779 40.4456 31.2172C40.2219 32.7766 39.9988 34.3376 39.7759 35.8972C39.9311 34.6609 40.0874 33.4231 40.245 32.1773C39.6861 35.081 39.1434 36.3595 39.5865 33.1301C39.587 33.1276 39.5874 33.125 39.5879 33.1224ZM28.1208 70.5875C28.1641 69.2507 27.3952 66.7086 27.3859 67.0393C27.3206 69.551 28.0606 72.4397 28.1208 70.5875ZM63.7622 31.98C64.1995 36.8779 64.6951 33.4267 64.4404 30.4231C64.4699 32.2739 63.5141 29.2006 63.7622 31.98ZM27.9907 100.366C28.1373 99.9437 28.2844 99.5175 28.44 99.0424C28.0775 100.558 27.9646 100.812 27.9907 100.366ZM79.1242 46.691C78.9015 47.4109 77.6735 52.8251 77.5937 53.575C77.4302 55.1317 78.806 51.0002 79.2042 48.4794C79.2487 48.2005 79.3462 45.9749 79.1218 46.7024C79.1226 46.6986 79.1234 46.6948 79.1242 46.691ZM38.145 39.6236C38.1545 39.6164 38.1613 39.6223 38.1657 39.639C38.1592 39.6321 38.1512 39.6324 38.145 39.6236ZM20.813 63.7186C20.8302 63.6904 20.8454 63.6762 20.8574 63.6815C20.8436 63.6913 20.8274 63.7129 20.813 63.7186ZM70.1288 84.8041C68.9451 86.4382 68.4649 90.6923 69.5691 87.4886C69.6296 87.309 70.0324 85.2416 70.1288 84.8041ZM168.973 64.2716C172.466 60.9286 176.018 57.5245 179.609 54.0823L184.129 59.3124C172.424 68.4736 160.343 77.9392 148.502 87.1544L143.282 91.3026L142.864 84.5861C142.5 77.6053 142.151 70.6983 141.827 63.9484C141.673 60.7458 141.919 60.952 141.902 60.0522C141.857 57.592 141.501 56.1284 141.426 54.3374C141.361 52.8009 141.295 51.282 141.229 49.7754L141.073 47.3489L143.431 46.5089C150.107 44.2828 156.521 42.1183 163.202 39.8976C171.558 37.1196 167.857 39.1656 170.808 38.3386C170.954 38.2977 171.094 38.2583 171.226 38.2204L172.336 42.1929C167.105 43.0438 171.962 42.9223 169.768 43.6114C163.059 45.0077 156.28 46.3719 149.548 47.7246C151.167 47.2825 152.787 46.8421 154.426 46.4025C151.497 47.0174 147.281 47.7812 152.125 46.476C151.028 46.6437 150.001 46.7844 148.874 46.9601C148.694 47.2756 145.52 48.0424 143.92 48.5099L141.396 49.0858L141.234 46.4544C141.177 45.9836 141.123 45.6424 141.072 45.5376C140.965 45.3177 140.951 45.8442 140.964 46.4681L141.146 49.4208L143.977 48.7746C144.681 48.6433 145.507 48.4551 145.499 48.4665C145.47 48.5292 144.895 48.6816 144.001 48.8839L141.042 49.5592L140.852 46.4737C140.652 43.1192 140.484 35.4263 140.471 34.7337C140.43 32.4033 140.962 34.4214 140.835 32.4436C140.615 29.0419 139.856 31.3539 140.785 26.6871C140.314 24.8731 140.502 24.7032 140.411 22.3807C140.399 22.0749 140.192 22.3231 140.18 22.189C139.84 18.6837 140.383 21.3638 140.404 21.3444C140.762 21.0064 140.405 17.2444 140.4 16.4482C140.396 15.7162 140.392 14.9986 140.387 14.293L140.327 13.3068L141.26 12.8969C149.617 9.76528 156.157 7.26907 165.173 3.53203C166.19 3.11049 168.191 2.22501 170.22 1.3317L170.652 2.71137C168.338 3.21931 165.992 3.72994 164.871 3.92836C162.731 4.30711 163.818 3.80661 162.678 3.91017C161.025 4.91526 159.336 5.33775 155.243 5.74821C153.847 6.5207 153.961 6.10693 151.122 6.79121C148.759 7.36039 144.728 8.77472 142.012 8.84248C145.023 8.26435 144.665 8.10089 148.016 7.26392C149.131 6.98555 160.861 4.54792 159.89 4.25461C159.383 4.10179 155.542 5.13339 155.382 5.11895C154.453 5.03454 156.555 4.25917 158.502 3.97543C158.034 4.12821 157.468 4.30209 156.964 4.46231C161.353 3.90003 158.118 3.24041 161.632 3.67464C162.066 3.72723 161.938 3.90224 162.638 3.9089C162.763 3.8204 161.913 3.841 162.613 3.6684C163.327 3.49265 164.751 3.49259 164.905 3.21228C165.138 2.80293 162.186 3.55618 161.958 3.58234C161.956 3.58493 161.954 3.58752 161.952 3.5901C159.931 3.81657 164.068 2.93859 164.259 2.86488C165.495 2.38399 164.587 2.3986 166.472 1.82255C167.271 1.57872 169.022 1.23038 170.291 0.966378L170.918 2.97105C170.505 3.14789 170.146 3.30326 169.9 3.41754C168.951 3.85903 170.513 3.37517 169.88 3.68404C169.247 3.99293 168.391 4.21941 167.647 4.58152C167.329 4.737 167.419 4.90159 167.264 4.97468C165.604 5.76015 166.559 4.93116 165.037 5.60534C164.052 6.04247 160.864 7.79389 163.201 6.91529C162.113 7.41983 161.048 7.90343 159.962 8.39806C160.676 8.15419 161.406 7.88415 162.107 7.65646C160.007 8.45464 159.198 9.14652 157.913 9.71987C156.627 10.2933 155.316 10.4353 153.966 11.2141C151.082 12.8752 158.537 9.49888 159.499 9.16606C159.874 9.03655 158.594 9.90857 158.382 10.0082C157.44 10.4504 156.224 10.7351 155.49 11.0582C152.864 12.2162 151.358 13.1656 148.865 14.2903C146.988 15.1367 145.01 16.0243 142.979 16.9316L144.767 14.0714C145.3 21.8916 145.837 30.4053 146.233 37.2677C146.422 40.5484 146.203 42.5392 146.287 44.0116C146.338 44.9115 146.396 45.6042 146.457 46.1901L142.811 43.3992C144.418 42.9603 145.179 42.6375 147.349 42.1557C151.722 41.1842 157.94 40.0839 161.605 39.3427C164.142 38.8293 166.375 38.0703 167.032 37.9212C168.385 37.6132 169.782 37.2979 171.205 36.979L172.961 43.2653C165.061 46.0447 156.327 49.0453 150.084 51.1959C147.968 51.9248 146.497 52.311 145.512 52.5592L147.619 49.4343C147.599 50.0732 147.579 50.5117 147.598 50.802C147.808 54.0321 148.019 53.1517 148.133 55.7734C148.195 57.1897 147.962 57.4677 147.962 57.6575C147.97 59.3301 148.311 59.645 148.391 60.946C148.851 68.4275 149.025 75.6487 149.39 83.0618C149.416 83.5997 149.27 83.5596 149.296 83.9075C149.306 84.0334 149.316 84.1437 149.327 84.2411L144.52 82.0517C145.321 81.352 144.839 81.4866 145.959 80.5931C148.504 78.5627 151.163 76.5357 153.901 74.4351C154.173 74.227 154.407 74.2777 155.024 73.7967C155.641 73.3149 156.002 72.8119 156.977 72.0631C159.526 70.1068 162.153 68.3212 164.843 66.2372C165.288 65.8922 165.701 65.2881 166.368 64.7706C168.462 63.1464 171.678 60.8919 173.473 59.5011C175.774 57.7163 177.993 55.9678 180.172 54.2418L184.053 58.7318C180.916 61.7731 177.872 64.749 174.755 67.7288C173.557 68.8742 172.353 69.7405 171.726 70.333C170.313 71.6689 171.508 70.7957 170.084 72.1575C162.278 79.6226 154.423 87.0766 146.546 94.5763L141.854 98.9901L141.531 92.6035C141.231 87.2825 140.925 81.9502 140.607 76.6049C140.229 70.2216 139.574 62.463 139.269 56.29C139.142 53.7232 139.383 53.2421 139.28 51.4277C139.094 48.1911 138.716 47.6243 138.482 44.2125C138.296 41.4895 138.456 38.3473 138.27 35.5141C138.083 32.6808 137.673 31.3924 137.443 28.1387C137.253 25.4589 137.186 21.7058 136.991 18.7874C136.732 14.9163 136.475 11.0535 136.222 7.19622L142.779 6.7748C144.233 25.5596 145.61 44.2163 146.828 63.0975L146.959 65.3026L145.074 66.3063C141.541 68.2126 137.996 70.1166 134.434 72.019C126.041 76.5026 116.801 81.6089 108.015 86.0381C107.19 86.4539 108.275 85.4932 105.709 86.9731C104.331 87.7685 102.515 89.0779 99.2953 90.8541C95.7995 92.7823 92.2503 94.714 88.6653 96.6492L85.9297 91.42C102.085 83.3291 118.983 74.6085 133.637 64.3328C137.52 61.513 141.702 58.3376 144.09 54.9931C145.495 52.9841 146.845 50.2855 146.627 49.5512C146.592 49.4181 146.595 49.4534 146.475 49.3079C146.356 49.1731 146.059 48.9266 145.657 48.6853C144.832 48.1832 143.684 47.6945 142.5 47.2246C137.639 45.3738 132.334 43.3904 127.492 40.7089C123.131 38.2308 119.094 36.7181 114.148 33.4746C112.907 32.5933 111.386 31.0052 110.726 29.1551C110.057 27.3501 110.005 25.8094 109.975 24.4652C109.966 21.7677 110.214 19.4505 110.423 17.0712C110.614 15.1003 110.945 12.9934 112.036 10.8577C113.01 8.67978 115.819 6.56898 118.318 6.54544C123.082 6.40233 126.28 8.95336 128.514 9.64477C128.655 9.6885 128.531 9.7665 128.492 9.90421C128.45 10.0377 128.526 10.142 128.612 10.237C128.699 10.3309 128.761 10.4571 128.695 10.5796C128.626 10.7019 128.461 10.7962 128.266 10.8283C127.605 10.5682 126.989 10.1434 126.283 9.70763C124.951 10.3644 125.31 9.98001 121.513 8.94508C119.1 8.53218 120.975 9.21033 119.708 9.22933C118.911 9.20918 116.54 9.7348 115.632 11.3763C114.664 12.8889 114.437 14.4749 114.261 13.6608C114.251 14.1303 114.265 14.5998 114.304 15.0513C114.194 15.7818 114.137 16.4982 114.11 17.2739C114.194 21.8368 112.882 27.5454 116.619 29.8193C117.343 30.3059 117.491 30.1427 118.304 30.592C120.522 31.7565 122.379 32.7856 124.767 34.0181C126.093 34.7012 126.382 34.5758 128.061 35.5064C128.934 35.9936 129.281 36.2921 129.791 36.6212C130.256 36.9219 130.79 37.2103 131.99 37.6424C130.683 36.5458 137.189 40.1302 139.727 41.0439C140.067 41.1908 143.191 42.0286 144.79 42.762C145.597 43.1368 146.605 43.6439 147.746 44.3633C148.822 45.0807 150.373 46.0734 151.087 48.0897C151.631 49.9063 151.574 51.0892 151.049 52.6187C150.647 53.6855 149.836 54.6495 149.156 55.7222C148.84 56.2218 148.401 56.966 147.941 57.7009C147.39 58.5809 146.785 59.3373 146.604 59.5417C145.347 60.9062 146.598 59.3196 145.745 60.1996C141.471 64.4212 135.994 68.0243 131.377 71.2427C130.811 71.6329 131.722 71.2866 131.649 71.3427C127.867 74.1215 129.813 72.5176 128.648 73.0455C127.538 73.5801 119.965 78.3139 120.086 78.6407C119.614 78.387 118.088 79.6957 117.648 79.9671C115.941 81.0226 116.083 80.4798 114.461 81.5556C113.865 81.9496 115.204 81.4916 114.535 81.8666C112.881 82.7924 111.189 83.2555 108.967 84.446C108.43 84.7334 108.359 84.9937 107.404 85.515C106.455 86.0382 102.364 87.9975 104.392 87.3559C101.819 88.3827 101.415 88.8052 98.5876 90.2985C97.8701 90.6755 96.7972 90.8923 95.3241 91.7704C94.8305 92.0647 94.9679 92.3311 94.1912 92.7371C92.4127 93.6659 90.5922 94.2527 88.3044 95.3867C88.1993 95.4388 88.0948 95.4906 87.9909 95.5422L86.4545 92.6053C90.5348 90.3878 94.758 87.845 99.0289 85.5963C100.22 84.9695 100.069 85.3948 101.789 84.4612C102.041 84.3232 103.984 82.9643 105.183 82.337C105.904 81.9595 109.692 80.0971 110.445 79.702C111.69 79.048 111.771 78.6721 112.474 78.3525C114.508 77.428 113.145 78.6612 115.216 76.8612C116.145 76.7236 117.503 75.9438 118.136 76.0541C118.725 75.2321 119.965 75.0345 121.446 74.0575C122.927 73.0802 123.792 71.6395 124.606 72.2357C125.277 71.742 128.275 69.8875 128.789 69.5905C130.305 68.717 129.605 69.3875 130.747 68.7242C130.949 68.6077 130.652 68.5728 131.969 67.8722C132.834 67.4125 139.133 63.9807 139.52 63.796C143.938 61.6889 137.266 65.2239 136.428 65.8951C136.241 65.9415 136.055 65.9868 135.857 66.0397C133.923 67.0041 135.189 66.7569 136.092 66.3667C136.994 65.9765 138.516 64.9464 139.292 64.6685C139.678 64.5304 139.682 65.0617 138.579 65.6003C139.8 65.0974 138.301 66.0906 138.821 65.9605C139.231 65.8577 142.023 64.3924 143.531 63.484L143.626 63.4335L143.62 63.3224C143.543 62.6342 143.461 62.1626 143.387 62.1588C143.41 62.5269 143.437 62.9249 143.465 63.3332L143.466 63.3435L143.457 63.3482C142.743 63.7377 141.994 64.149 141.341 64.4982C140.441 64.6822 141.227 63.4958 142.838 62.2156L142.178 63.4235C141.854 62.1073 141.643 60.4491 141.772 58.8249C142.008 55.8583 142.698 60.6732 141.841 53.7536C141.898 54.8229 141.919 55.7293 141.969 56.7011C141.64 56.8279 141.899 55.2277 141.735 54.4234C141.656 54.0372 141.587 56.457 141.361 54.376C141.715 52.548 141.136 51.201 140.919 48.1922C141.064 49.0225 141.207 49.8539 141.352 50.6842C141.343 45.5751 142.285 57.3773 141.787 47.4764C141.886 48.6651 141.965 49.8491 142.072 51.0434C142.208 50.4514 142.789 51.3428 142.862 50.8163C143.053 49.4353 142.739 47.4338 142.648 45.7722C142.608 45.045 142.779 45.4858 142.775 45.4247C142.721 44.4287 142.532 44.6627 142.458 43.7908C142.365 42.6935 142.341 39.507 142.282 38.9942C142.131 37.6676 141.883 39.9116 141.844 39.7855C141.589 38.9508 141.63 37.2065 141.38 37.3154C141.848 41.4728 142.465 53.5053 141.28 42.6637C141.077 45.6898 140.447 44.8642 140.1 40.5579C139.813 36.9957 140.202 39.28 140.323 37.4067C140.338 37.1646 140.123 32.3816 139.929 32.1495C140.351 32.3122 140.603 30.7331 141.098 31.7462C141.171 31.8944 141.283 33.8555 141.574 33.1481C141.721 32.7943 142.022 31.7875 142.25 31.9304C142.071 31.5381 141.872 31.1287 141.686 30.7309C141.437 27.7978 141.57 27.3693 141.738 25.7442C141.626 25.8256 141.237 27.3436 141.229 25.0806C141.23 24.9644 141.4 24.8521 141.407 23.7015C141.421 21.376 141.442 20.8893 142.086 22.6284C141.454 17.8586 141.961 16.7859 141.447 11.8851C140.848 12.9086 141.134 14.6242 141.578 19.1137C141.433 19.3202 141.282 19.4228 141.136 19.6354C141.076 13.6226 141.247 16.5839 140.687 13.2142C140.549 12.3896 140.324 7.95712 139.978 9.46587C139.896 9.82195 140.101 12.5711 139.912 12.2674C139.876 12.2087 139.561 8.87116 139.584 8.57342C139.759 6.16166 140.169 8.05002 140.194 6.95601L138.809 7.04499C138.789 7.64566 138.874 9.14724 139.154 12.7573C139.176 13.0379 139.377 13.1251 139.436 13.6725C139.547 14.7017 139.322 14.7278 139.428 15.6466C139.534 16.5659 139.912 17.8261 139.713 19.229C139.351 21.794 138.708 15.8311 138.823 13.1518C138.093 12.1096 139.19 31.1391 139.316 32.3147C139.865 37.4487 139.221 28.8896 139.38 28.4373C139.448 28.2495 140.445 28.2827 139.675 26.1523C139.447 25.5221 139.352 28.2176 139.153 26.6241C138.955 25.0298 139.284 25.6468 139.297 25.5296C139.344 25.1274 139.136 23.4315 139.165 23.2082C139.595 19.775 140.563 20.031 139.423 24.6151C139.854 26.5575 140.097 22.027 140.454 24.4519C140.889 27.3991 140.563 29.5879 140.565 29.9617C140.584 34.44 140.944 29.2538 141.052 34.7189C141.112 37.7618 140.347 30.201 140.795 37.1317C141.171 42.9329 141.218 39.7854 141.765 40.1764C141.893 40.2688 142.229 43.4396 141.922 39.113C141.778 38.9988 141.586 38.7783 141.444 38.5108C141.481 37.4429 142.059 35.6324 142.05 35.0676C142.002 32.306 141.656 32.4597 141.978 30.8107C141.59 31.9976 141.754 30.0932 141.617 29.3903C141.108 26.7798 141.178 30.2376 141.289 24.305C141.12 25.0872 140.951 25.7957 140.782 26.5534C140.733 25.8455 140.684 25.137 140.635 24.429C141.044 23.3448 140.764 19.5846 141.437 22.9651C141.332 18.8589 141.132 17.2081 140.714 16.3315C140.634 16.1649 140.57 15.5508 140.521 14.8276C140.426 14.9705 140.119 15.1641 140.073 15.0524C139.67 14.0525 140.17 12.4365 140.428 12.9624C140.409 12.4557 140.398 12.0542 140.396 11.9125C140.378 11.0138 140.686 12.7597 140.713 12.0288C140.722 11.7879 140.53 9.26419 140.61 9.21048C141.071 8.91002 141.006 12.228 140.86 6.92514L138.145 7.09961C138.169 7.72033 138.196 8.45924 138.225 9.336C138.539 9.44131 138.505 7.95116 138.583 7.0689L140.421 6.95077C140.369 7.47097 140.281 7.77895 140.068 7.42054C139.991 7.29092 139.934 7.14273 139.89 6.9818L139.113 7.03172C139.431 8.15428 139.058 9.90907 139.681 10.2841C139.582 10.4688 139.494 10.5536 139.378 10.715C139.91 14.0694 139.348 14.1537 139.295 15.1935C139.192 17.2128 139.874 26.4152 139.784 18.1158C139.918 19.321 140.027 20.5534 140.154 21.7529C139.16 22.0985 139.512 21.3379 139.764 27.1412C139.819 28.4193 139.402 28.8658 140.019 30.0798C139.488 29.9462 140.066 33.6973 140.028 34.0538C139.776 36.341 138.618 27.9953 139.461 26.8557C139.004 25.4652 139.477 25.4372 139.304 23.8612C139.053 21.5846 138.939 21.274 139.098 18.5393C138.42 15.9061 139.614 28.9974 138.405 21.0953C138.069 18.8965 137.547 13.7295 136.95 7.18334L142.055 6.85527C143.406 23.8588 145.153 50.1536 145.68 57.9502C146.638 72.152 147.279 81.4652 147.94 92.2289L142.11 89.9351C145.047 87.1109 148.141 84.1504 151.639 80.8181C152.897 79.6192 162.348 70.521 160.77 72.8161C160.543 73.1457 156.614 77.2008 160.421 74.1797C159.527 74.6693 161.466 72.5792 161.619 72.3943C165.143 68.1547 162.745 70.2335 168.973 64.2716ZM172.458 61.9604C181.409 55.1404 174.658 59.926 175.972 57.8108C174.832 58.6973 173.696 59.5806 172.556 60.4671C172.889 60.2762 173.217 60.0882 173.549 59.8973C173.55 59.8963 173.552 59.8953 173.553 59.8943C173.189 60.5819 172.822 61.2727 172.458 61.9604ZM165.197 6.65993C164.837 6.93607 164.483 7.21041 164.088 7.49867C162.707 8.04914 161.331 8.59798 159.949 9.14845C160.082 9.00831 160.21 8.86968 160.343 8.72953C161.962 8.04313 163.576 7.35916 165.197 6.65993ZM138.607 11.588C138.793 9.51709 138.273 9.68169 138.335 7.07268L140.667 6.92282C140.666 6.98415 140.665 7.04701 140.664 7.11146C140.734 7.04488 140.803 6.97709 140.873 6.90843L138.13 7.0847C137.81 7.39465 137.496 7.7229 137.177 8.03819C137.363 10.1595 137.548 10.6332 137.582 12.9473C137.699 12.6709 137.816 12.388 137.935 12.1176C137.884 11.7349 137.828 11.3279 137.781 10.9572C138.118 10.3432 138.389 14.0284 138.608 11.5953C138.607 11.5929 138.607 11.5905 138.607 11.588ZM142.018 23.9163C142.043 25.0494 142.155 29.5375 142.368 30.1359C143.093 32.1646 141.841 19.5682 143.008 28.8349C143.087 28.7866 143.169 28.8236 143.25 28.8179C143.16 27.119 143.066 25.4255 142.969 23.7147C142.654 23.8288 142.333 23.79 142.018 23.9163ZM161.559 78.4272C160.27 79.597 154.463 85.5254 156.672 83.9234C157.322 83.4517 159.635 80.5125 160.668 79.5566C161.337 78.9375 160.798 79.8521 162.025 78.5324C161.88 78.4953 161.747 78.4273 161.556 78.4312C161.557 78.4299 161.558 78.4285 161.559 78.4272ZM162.756 74.9582C161.492 76.2383 160.218 77.5454 158.947 78.8363C160.13 78.1608 161.864 76.2114 162.294 76.4404C161.96 76.8081 161.63 77.1718 161.296 77.5395C160.952 77.7283 160.612 77.9131 160.272 78.0977C159.323 79.3535 160.089 78.7933 157.947 80.7407C159.696 80.0373 160.19 80.0843 163.284 76.1478C162.87 77.0692 164.361 77.3547 165.737 74.8174C165.995 74.3436 164.367 75.7474 164.331 75.7454C163.868 75.7386 164.586 74.7658 164.118 74.7887C163.907 74.7983 162.962 75.7046 162.687 75.7005C162.557 75.695 163.272 74.6407 162.756 74.9582ZM166.487 73.6718C166.22 74.1988 167.919 73.2216 169.047 72.0117C170.808 70.1254 167.564 72.6116 166.487 73.6718ZM165.206 6.65569C165.203 6.6571 165.2 6.65852 165.197 6.65993C165.198 6.65889 165.2 6.65786 165.201 6.65683C165.202 6.65645 165.204 6.65607 165.206 6.65569ZM141.837 18.0774C142.097 19.3961 142.211 21.3673 142.466 21.2033C142.459 21.854 142.454 22.5118 142.447 23.1625C142.526 23.1508 142.605 23.133 142.684 23.1213C142.597 21.1709 142.511 19.2262 142.425 17.2756C142.229 17.5347 142.03 17.7756 141.837 18.0774ZM143.138 39.3023C143.282 41.7515 143.5 39.6744 143.712 40.1993C143.923 40.7243 143.934 42.9145 144.167 42.6406C144.075 41.1993 143.98 39.696 143.887 38.2365C143.642 38.6402 143.383 38.9281 143.138 39.3072C143.138 39.3055 143.138 39.3039 143.138 39.3023ZM147.651 72.7747C147.661 74.4406 147.349 73.7773 147.847 77.0412C147.847 77.0387 147.847 77.0363 147.847 77.0339C147.906 73.8996 147.893 69.8694 147.49 66.4352C147.312 68.5584 147.634 70.1533 147.651 72.7747ZM138.133 17.4458C138.392 18.1345 138.384 14.8569 138.139 14.148C137.742 13.0008 137.739 16.3962 138.133 17.4458ZM157.309 43.3592C154.978 44.554 159.826 44.2764 164.666 42.8928C165.085 42.7729 161.87 43.2507 162.781 42.9186C162.873 42.8854 164.617 42.5239 165.027 42.339C165.438 42.1539 164.939 42.0389 165.626 41.7965C166.83 41.3718 169.691 41.0545 170.573 40.6485C170.689 40.5946 168.892 40.686 168.781 40.6987C166.962 40.9128 165.325 41.6575 165.051 41.7197C163.636 42.0397 163.787 41.7013 163.413 41.7105C162.709 41.728 161.548 42.115 161.462 42.1236C159.255 42.3339 164.186 41.3415 164.827 41.0923C166.553 40.4206 164.841 40.5154 169.094 39.4253C169.497 39.3219 174.375 38.2823 168.162 39.2871C169.801 38.8336 170.872 38.5224 171.497 38.3245L172.514 41.9634C171.522 42.4118 171.719 42.405 172.574 42.1399L171.457 38.1421C169.015 38.5937 161.31 40.4245 160.083 40.7901C159.191 41.0563 160.625 41.0368 160.102 41.2813C158.908 41.8401 156.779 42.3547 157.057 42.717C157.654 43.4764 160.345 42.3106 162.314 42.0333C162.15 42.2617 162.112 42.4584 161.774 42.7204C162.301 42.352 157.478 43.2708 157.309 43.3576C157.309 43.3581 157.309 43.3587 157.309 43.3592ZM156.793 46.3969C154.086 47.0508 154.45 47.5055 151.947 48.0351C149.989 49.2292 154.156 47.761 154.651 47.6199C156.913 46.9729 157.036 47.4968 159.256 46.5591C158.372 46.5282 157.631 46.4445 156.793 46.3969ZM164.019 40.6576C165.772 39.9935 162.531 40.701 162.388 40.6777C160.837 40.4378 170.568 38.4397 164.019 40.6576ZM152.99 85.0907C152.297 85.728 152.912 85.5071 152.366 86.1378C151.819 86.7698 149.606 88.5707 149.772 88.6411C149.939 88.7102 154.004 85.4195 150.286 89.1018C150.479 89.0465 150.484 89.138 150.604 89.1396C151.645 88.1478 152.697 87.1481 153.738 86.1563C152.982 86.508 152.203 86.8633 151.476 87.2004C151.912 86.4882 152.429 86.3722 152.46 86.3426C152.46 86.3424 152.46 86.3422 152.46 86.342C153.533 85.2867 154.548 83.6595 152.99 85.0907ZM154.737 76.0833C154.925 76.7811 156.219 74.8288 156.887 74.2029C157.555 73.5773 158.694 73.0009 158.147 73.0647C156.862 73.8161 154.716 76.0059 154.738 76.084C154.738 76.0837 154.737 76.0835 154.737 76.0833ZM145.593 51.9335C145.878 54.2452 146.031 53.8675 145.985 56.7165C146.14 56.598 146.298 56.4792 146.451 56.3608C146.334 54.106 145.876 54.2894 145.924 51.6708C145.932 51.2414 146.353 52.1373 146.131 50.2136C145.962 50.786 145.772 51.3668 145.593 51.9335ZM146.802 63.4009C146.635 60.7381 145.223 58.6945 146.071 63.5698C146.197 64.2923 146.928 65.4034 146.802 63.4009ZM170.758 68.0632C167.452 71.1719 171.324 67.7614 172.316 67.0896C164.789 74.5052 173.141 66.2259 174.362 65.9786C175.165 64.9496 176.612 62.967 174.592 64.7377C173.749 65.4766 174.181 65.3373 174.132 65.3833C172.607 66.7726 172.564 66.3657 170.758 68.0632ZM161.337 44.7998C161.178 44.8648 161.505 44.9901 161.005 45.2097C160.504 45.4292 159.285 45.682 159.215 45.8522C159.145 46.023 161.52 45.3194 162.206 44.9768C162.89 44.6334 162.773 44.2144 161.337 44.7998ZM144.688 49.9418C144.665 49.9515 144.643 49.961 144.622 49.9704L144.885 49.5802C145.026 50.6182 145.248 50.2493 145.432 49.551L144.8 50.4888C145.541 50.4742 146.604 50.327 146.837 50.2448C150.92 48.7946 144.652 50.2314 144.688 49.9418ZM177.406 59.765C173.741 63.8488 177.139 61.6121 179.919 59.5608C180.185 59.1838 180.459 58.7987 180.721 58.4265C179.615 60.2258 177.402 63.0753 182.733 57.351L181.347 55.7477C181.308 55.7824 181.268 55.8174 181.228 55.8528C181.271 55.8207 181.314 55.7893 181.356 55.7587L182.723 57.3409C179.645 60.1091 182.138 57.5299 182.137 57.4889C181.8 56.4371 177.42 61.2612 177.409 59.7616C177.408 59.7628 177.407 59.7639 177.406 59.765ZM168.387 42.6247C169.345 42.2937 170.946 41.7094 172.247 41.1883L171.671 39.1256C169.844 39.6176 168.573 40.0594 170.247 39.9508C170.746 39.7855 171.244 39.6204 171.742 39.4553L172.137 40.8693C170.887 41.4544 169.639 42.039 168.387 42.6247ZM142.789 49.2563C142.923 47.2993 142.814 45.5089 142.658 43.1152C142.424 45.2924 142.3 43.8778 142.17 43.156C141.973 42.0611 142.14 44.7315 142.116 44.7405C141.771 44.7116 141.619 43.0114 141.854 46.8888C141.679 45.937 141.503 44.9978 141.329 44.046C141.487 47.0029 141.304 47.7118 141.142 49.6027C141.7 47.7435 141.424 50.1647 141.882 52.32C142.111 53.3958 142.721 50.2519 142.789 49.249C142.789 49.2515 142.789 49.2539 142.789 49.2563ZM173.226 63.5747C172.902 64.0504 172.642 64.5238 172.343 64.9992C171.923 65.4188 171.501 65.8379 171.081 66.2575C170.954 66.2315 170.833 66.1936 170.701 66.1789C170.114 66.697 170.437 66.5932 170.278 66.7639C170.278 66.7635 170.277 66.763 170.277 66.7626C168.002 69.2076 167 70.1349 164.885 71.7024C165.11 71.9374 165.335 72.1724 165.559 72.4075C165.962 71.9795 166.37 71.5478 166.774 71.1204C166.879 70.7786 166.984 70.4357 167.089 70.0938C167.647 69.6941 168.199 69.2983 168.757 68.8987C169.107 68.4773 169.534 67.9776 169.832 67.6079C172.42 66.3921 167.54 70.2021 167.761 70.5129C167.902 70.7135 172.379 66.4192 172.91 65.6808C172.986 65.5743 171.549 66.0115 173.433 64.6982C173.728 64.4932 174.83 65.4653 175.78 62.9173C175.916 62.5547 174.407 62.7387 173.226 63.5747ZM156.615 78.798C159.783 77.0652 149.793 85.2438 154.341 81.9628C153.493 83.3687 153.702 83.1615 155.12 82.3346C155.245 82.2622 154.529 83.1098 154.607 83.056C155.832 82.1766 157.055 80.853 157.329 81.1214C157.607 80.8278 157.869 80.5523 158.146 80.2586C156.681 81.1596 158.447 79.1367 158.984 78.2021C159.229 77.777 158.417 78.4942 158.62 78.1331C158.696 77.9998 159.849 77.019 159.807 76.8847C159.703 76.5893 158.749 76.9662 157.44 77.9258C157.44 77.9256 157.44 77.9254 157.44 77.9252C157.161 78.2176 156.893 78.505 156.615 78.798ZM150.23 82.2658C149.443 82.2228 147.476 83.5697 150.924 80.5581C150.683 80.6169 150.437 80.6804 150.196 80.7392C149.594 81.2205 149.011 81.6869 148.398 82.1751C148.056 83.1658 147.221 83.9652 146.457 84.5339L146.203 84.7358L146.183 84.4089C146.134 82.8169 146.499 81.7592 145.914 83.5121C145.866 83.6575 145.892 84.1452 145.889 84.4246L145.944 85.3174L146.638 84.766C146.82 84.6429 146.906 84.6085 146.709 84.8568L145.843 85.545L145.774 84.4307C145.737 84.3079 145.689 84.1205 145.626 83.851C145.626 83.8534 145.626 83.8559 145.626 83.8584C145.645 84.0649 145.664 84.2566 145.682 84.4356L145.763 85.7256L146.765 84.9289C148.285 83.6169 148.54 83.2497 150.23 82.2658ZM163.308 71.6028C167.221 67.1678 156.601 76.0653 158.603 74.8702C158.783 74.7628 163.341 70.909 163.308 71.6028ZM143.71 59.0978C143.83 61.7012 144.426 61.8424 144.624 61.5686C144.822 61.2946 144.511 59.5039 144.532 59.2696C144.602 58.506 144.76 60.1092 144.859 59.1174C144.89 58.789 144.857 54.2448 144.821 54.0385C144.619 52.8927 144.225 54.6046 144.152 54.2776C143.913 53.212 144.087 51.7385 143.813 51.4403C143.227 50.7978 143.949 53.4892 143.983 53.9484C144.083 55.3341 143.768 55.2294 143.761 56.2715C143.755 57.3128 143.897 57.9855 143.924 58.9026C143.933 59.2077 143.705 58.9657 143.71 59.0978ZM145.409 67.637C144.82 64.9426 144.69 71.5867 144.836 72.3662C145.268 74.6595 145.69 68.9273 145.409 67.637ZM163.904 73.786C165.481 71.8327 161.108 75.6513 159.999 76.8909C160.314 76.7752 163.362 74.458 163.904 73.786ZM178.504 58.7178C176.919 60.3717 179.615 58.8 180.987 57.4726C181.466 56.3541 180.77 57.1502 179.854 57.9984C178.939 58.8456 179.74 57.4276 178.504 58.7178ZM162.051 42.7591C161.582 42.9126 154.185 45.8745 158.562 44.5422C158.896 44.4404 164.141 42.5626 164.516 42.3557C165.271 41.9388 163.261 42.3652 162.051 42.7591ZM177.472 62.1196C178.173 61.0487 179.116 60.3198 177.94 60.6225C177.938 60.6235 177.937 60.6245 177.936 60.6255C180.261 58.6226 180.979 59.3213 181.487 58.898C183.263 57.4173 181.102 58.2078 182.102 57.1331C179.579 59.379 180.048 58.4088 178.008 59.9622C177.551 60.3109 175.911 61.9511 175.754 62.2978C175.599 62.6443 176.852 62.34 177.472 62.1196ZM171.016 41.2467C171.385 41.1892 171.746 41.1171 172.085 41.0373L171.611 39.3386C169.58 40.0777 168.442 41.0079 171.506 40.0505C171.613 40.0169 171.718 39.9818 171.819 39.9456L171.949 40.4099C170.361 40.7745 169.494 41.4844 171.016 41.2467ZM139.938 27.946C140.084 27.5248 140.229 27.0914 140.372 26.6398C140.483 27.6253 140.596 28.6117 140.708 29.5972C140.598 28.8197 140.489 28.0412 140.379 27.2575C140.448 29.1175 140.189 29.9883 139.938 27.9509C139.938 27.9493 139.938 27.9476 139.938 27.946ZM115.972 77.0312C115.161 77.2821 113.973 78.528 114.176 78.464C115.696 77.9797 117.098 76.6828 115.972 77.0312ZM160.147 75.1784C157.859 77.2631 159.985 76.4084 161.397 75.1402C160.446 75.8242 161.445 73.9955 160.147 75.1784ZM136.428 65.8951C136.707 65.826 136.988 65.756 137.296 65.671C136.388 66.0512 136.207 66.0725 136.428 65.8951ZM160.61 42.4601C160.142 42.552 156.821 43.6373 156.402 43.8672C155.531 44.3463 158.26 43.9045 159.729 43.2463C159.891 43.1739 161.076 42.369 160.603 42.4625C160.605 42.4617 160.608 42.4609 160.61 42.4601ZM139.905 32.1438C139.913 32.1378 139.921 32.1402 139.929 32.1495C139.921 32.1465 139.913 32.148 139.905 32.1438ZM120.129 78.6603C120.106 78.6588 120.091 78.6527 120.086 78.6407C120.099 78.6476 120.118 78.6512 120.129 78.6603ZM142.642 56.7847C141.895 57.9889 142.468 60.6422 142.756 58.5066C142.77 58.3871 142.656 57.0663 142.642 56.7847ZM82.1572 93.1926C81.8711 93.4473 81.5878 93.7084 81.3404 93.9515C81.2195 94.0703 81.1003 94.1923 81.0126 94.2883C80.9304 94.3734 80.8374 94.5043 80.9416 94.3618L74.6738 91.829C75.5659 86.6007 76.481 81.0281 77.5003 75.9008C77.6453 75.1711 77.8683 75.2607 77.9349 75.06C78.1179 74.5103 77.9043 74.1211 77.9958 73.7159C78.441 71.7355 78.8059 69.8741 79.234 67.9312C79.6751 65.927 80.229 67.0074 80.5261 66.3369C81.1069 65.0295 79.9662 66.0297 79.8488 65.4551C80.1783 63.8898 80.5539 62.3254 80.9285 60.7694C80.9492 61.1726 80.9691 61.5691 80.9834 61.97C81.12 61.2948 81.4362 60.328 81.4823 61.5245C81.5933 61.2849 81.7142 61.0562 81.8252 60.8064C81.496 60.6739 81.6775 59.4574 81.4933 59.3144C81.3095 59.1693 81.2393 59.8551 81.2222 59.8484C80.9767 59.7653 81.8044 57.0217 81.8673 56.8226C82.0346 56.2974 82.3777 56.8412 82.4287 56.3803C82.516 55.5908 81.5638 55.9657 82.8913 55.1075C82.5916 54.6178 82.7916 54.6131 82.9083 54.0855C82.9234 54.0162 82.6984 54.0335 82.698 54.0018C82.6745 53.1747 82.9708 53.8576 82.9932 53.8572C83.3744 53.8501 83.3579 52.9568 83.4251 52.776C84.2556 50.5634 84.8367 48.9482 85.3428 46.5451C85.4554 46.006 85.5686 44.3901 85.7106 43.9138C85.8539 43.4262 86.0774 43.7322 86.2485 43.4877C85.6765 42.9596 85.6705 42.5537 86.2406 41.6895C85.8234 41.2941 86.2038 41.3388 86.2083 40.6885C86.2124 40.403 86.1101 40.0011 86.0762 39.5939C86.0391 39.2129 86.0769 38.7571 86.3235 38.6609C86.2888 38.8312 86.3076 39.0448 86.3539 39.2309C86.4056 39.3734 86.4688 39.6 86.4822 39.9903C86.491 40.286 86.0677 43.0135 86.5767 42.8857C86.8384 42.8498 86.7644 41.8454 86.812 41.8395C87.1107 41.6865 87.3643 42.2166 87.1717 42.679C87.1368 42.5514 87.1045 42.4022 87.07 42.2714C86.5667 43.2694 87.9697 42.742 86.7222 43.3317C86.569 43.4051 86.4315 43.3441 86.2592 43.4801C86.3144 43.5227 86.4962 43.3515 86.4957 43.5244C86.4946 43.7024 86.1557 43.9867 86.3893 44.0653C86.725 44.2041 86.7051 43.4612 86.7336 43.4136C86.7316 43.4127 86.7296 43.4118 86.7276 43.4109C86.9893 42.9705 86.85 43.962 86.8747 44.0173C87.0447 44.3426 87.2453 44.1684 87.3519 44.6428C87.4129 44.9115 87.2398 45.5849 87.2357 45.814C87.2304 46.056 87.4564 45.7157 87.4655 45.8805C87.4746 46.0453 87.3159 46.225 87.325 46.4243C87.3294 46.5096 87.5142 46.5362 87.514 46.5773C87.5134 47.018 87.1754 46.6846 87.1363 47.0631C87.1124 47.3027 87.3297 48.1956 87.5319 47.6407C87.5231 47.9208 87.5047 48.1972 87.4863 48.484C87.5709 48.3153 87.6386 48.1397 87.7314 47.9807C87.5561 48.4892 87.8311 48.7797 87.8016 49.0984C87.7712 49.4214 87.3445 49.6479 87.4676 50.0412C87.7295 50.8793 87.8706 48.9392 87.9758 48.7397C88.0183 48.6556 88.2571 49.0459 88.2565 49.1008C88.254 49.3419 87.9948 49.5885 87.973 49.7759C87.8941 50.4597 88.109 50.8874 88.0581 51.5305C87.8871 53.7029 87.5888 56.3815 87.3008 58.4229C87.1948 59.1747 86.802 59.5786 86.7521 59.9215C86.6365 60.7174 86.8943 60.8558 86.7893 61.5512C86.6331 62.591 86.1452 63.9904 85.945 64.8399C85.8071 65.4256 85.9783 66.0106 85.9579 66.1666C85.6809 68.328 85.2202 70.9404 84.9135 72.7181C84.7695 73.5533 84.4023 73.9014 84.381 74.075C84.2885 74.8235 84.5775 74.669 84.447 75.2646C84.3765 75.5874 84.1217 75.6066 84.1045 75.6484C83.957 76.0186 84.2623 76.1506 84.2205 76.4513C83.9814 78.1748 83.481 79.8049 83.1533 81.4939C83.1294 81.6158 82.9901 81.5802 82.9835 81.6606C82.9574 82.0128 83.2079 81.8915 83.1606 82.2556C83.063 83.0152 82.8948 83.7574 82.7255 84.5562C82.7089 84.6343 82.5212 84.6379 82.4896 84.8171C82.4581 84.9963 82.6063 85.1624 82.5476 85.4397C82.3944 86.1654 82.0572 86.8761 81.9118 87.6359C81.8872 87.7662 82.077 87.9683 82.0402 88.1633C81.9242 88.7799 81.5716 89.6196 81.4696 90.1554C81.2888 91.107 81.1545 92.0647 81.0309 92.9524L75.5887 90.7533C76.4695 89.5332 76.9035 89.2191 77.5164 88.6303C77.8378 88.3394 78.2447 88.2586 78.405 88.1264C78.7696 87.827 78.3734 87.91 78.7434 87.5946C81.7336 85.0814 84.8498 82.9046 87.9529 80.6551C89.1659 79.7788 90.5358 78.5691 91.7718 77.7789C92.2712 77.4611 92.5155 77.619 92.8695 77.3774C93.515 76.9362 93.4066 76.5928 94.0557 76.1064C94.5847 75.7117 95.3584 75.6007 95.9062 75.2037C96.4611 74.802 96.5039 74.3699 97.1207 73.9063C97.6372 73.5192 98.432 73.169 98.9939 72.7647C101.713 70.8057 104.441 68.9061 107.217 67.0851C109.637 65.492 111.975 63.9602 114.177 62.3623C115.782 61.246 117.553 59.3481 117.894 58.9802C117.926 58.9772 118.242 59.0492 118.18 59.009C118.161 59.0107 118.079 59.0383 118.017 59.1118C117.951 59.1805 117.928 59.2887 117.899 59.254C117.572 58.7046 114.825 57.2074 112.622 56.2025C110.278 55.1078 107.807 54.0192 105.365 53.0223C98.1495 50.2053 89.1561 47.3971 86.2416 40.0235C86.1007 39.6676 86.7903 39.2055 87.0935 39.1731C87.1198 39.4208 87.1164 39.6818 87.1381 39.9514C87.9989 39.3664 87.786 39.5361 88.4047 40.1971C88.7858 40.6006 88.7342 39.9859 89.0355 40.083C89.4155 40.2108 91.1237 40.954 90.4374 41.2564C90.5963 41.2349 90.745 41.2112 90.8992 41.1883C91.956 41.8936 93.0832 42.5129 94.2125 43.0547C94.4112 43.1501 94.5376 42.9823 94.741 43.0794C95.288 43.3376 95.6062 43.7106 96.1299 44.0185C96.4219 44.1896 96.5903 44.0096 96.9546 44.2531C97.3181 44.4942 97.1426 44.7717 97.8329 44.7695C97.7078 44.2202 99.0434 45.3527 99.5978 45.6235C99.6809 45.6667 100.48 45.6845 100.811 45.9076C101.138 46.129 101.556 46.614 102.149 46.7634C102.426 46.8326 102.708 46.6526 102.992 46.7743C103.19 46.8594 103.311 47.2026 103.551 47.3301C103.791 47.4584 104.406 47.517 104.502 47.5579C104.863 47.7111 104.394 47.6904 104.635 47.8127C105.792 48.3974 107.13 49.0882 108.34 49.4654C108.493 49.5139 108.371 49.233 108.393 49.2348C109.49 49.413 108.851 49.4437 109.046 49.7305C109.226 50.0064 111.174 50.6912 111.321 50.3524C111.209 50.8039 111.75 50.6423 111.872 50.6767C112.331 50.8053 112.097 51.1405 112.562 51.1949C112.732 51.2149 112.534 50.845 112.696 50.9186C113.096 51.1009 113.286 51.6437 113.832 51.9126C113.96 51.9766 114.077 51.8159 114.307 51.9176C114.527 52.0135 115.441 52.6533 115.133 52.083C115.626 52.6452 115.789 52.5183 116.499 52.8438C116.681 52.9291 116.787 53.317 117.197 53.4045C117.336 53.4347 117.458 53.1607 117.652 53.2522C118.135 53.4826 118.373 53.9487 118.951 54.2962C119.93 54.9328 121.396 55.4781 122.212 57.281C122.393 57.7884 122.095 57.757 122.225 58.4741C122.261 58.5495 122.552 59.5001 122.395 59.9578C122.361 60.0931 122.201 60.5095 121.983 60.878C121.793 61.1957 121.562 61.4961 121.49 61.6017C121.245 61.9581 121.455 62.1533 121.289 62.2935C120.796 62.6831 120.768 62.0213 120.759 62.9693C120.33 62.9777 120.134 63.2434 119.748 63.0702C119.918 63.5325 119.411 63.4559 119.18 63.8861C118.991 64.2753 119.302 65.139 118.609 64.534C118.551 64.7424 117.964 65.5 117.895 65.5716C117.609 65.8607 117.615 65.5272 117.398 65.75C117.358 65.7895 117.515 65.8857 117.224 66.0987C117.134 66.1635 116.714 66.4913 116.341 66.767C115.986 67.0307 115.619 67.2926 115.571 67.3134C114.467 67.7909 115.987 66.7952 116.042 66.5102C116.105 66.5238 116.168 66.5378 116.233 66.5492C116.697 66.2936 116.208 66.1788 115.981 66.239C115.755 66.2986 115.526 66.6889 115.296 66.7003C115.181 66.7053 114.951 66.2938 115.209 66.1711C114.883 66.2356 115.118 65.8685 114.942 65.8312C114.763 65.7846 113.606 66.5738 113.737 66.7937C113.965 66.6417 114.228 66.4396 114.446 66.2926C115.015 66.4302 114.976 68.3628 113.902 68.3668C113.086 68.3969 113.83 67.454 112.683 68.6981C112.906 68.5667 113.107 68.479 113.305 68.3643C113.517 68.6263 113.001 68.5344 112.9 68.7334C112.853 68.8297 113.463 68.698 113.095 69.048C112.472 68.8925 112.429 69.507 111.884 69.8789C111.995 69.7018 112.103 69.526 112.209 69.351C111.06 69.7048 113.236 68.1007 111.252 69.2C111.471 69.0353 111.682 68.8983 111.903 68.7207C111.684 68.6552 111.585 68.0975 111.417 68.0788C111.004 68.012 110.732 68.4021 110.399 68.5927C110.254 68.676 110.263 68.5023 110.251 68.5094C110.052 68.6229 110.207 68.7659 110.044 68.8889C109.842 69.0425 109.095 69.2916 109 69.3799C108.758 69.6055 109.433 69.6502 109.422 69.6928C109.385 69.848 109.228 69.9462 109.125 70.0388C109.047 70.1089 109.003 70.1756 109.072 70.2649C109.11 70.2295 109.153 70.1923 109.199 70.1538C110.111 69.4158 112.181 68.3049 110.409 69.9606C111.225 69.9185 111.384 70.5001 110.532 71.1099C109.958 71.5191 110.069 71.2769 109.866 71.1855C109.817 71.1626 109.75 71.1482 109.651 71.1536C109.584 71.1592 108.579 71.667 108.63 71.8459C108.444 71.4782 107.944 71.3703 107.918 70.8842C107.913 70.813 108.31 70.5848 107.991 70.3866C107.832 70.2869 107.438 70.0997 107.35 69.8974C107.354 70.0751 107.364 70.2709 107.371 70.4547C106.825 70.8614 106.66 70.7748 106.185 70.748C106.264 70.837 106.828 71.0595 106.299 71.2244C106.272 71.2317 106.155 71.0962 105.882 71.1694C105.331 71.3179 105.208 71.333 105.27 70.6705C104.501 71.5283 103.981 71.1746 103.11 71.9509C103.664 72.3875 103.926 72.0163 104.726 71.3381C104.851 71.4466 104.955 71.5669 105.082 71.676C103.727 72.1325 104.31 71.7941 103.826 72.4992C103.704 72.6735 102.804 73.1653 103.337 73.3538C103.462 73.3987 103.988 73.0374 104.019 73.2171C104.024 73.2522 103.422 73.7453 103.344 73.7458C102.336 73.7729 103.411 72.6149 101.531 74.0936C101.48 74.1343 101.568 74.3093 101.478 74.4019C101.308 74.5756 101.181 74.3892 101.034 74.5493C100.882 74.7134 100.797 75.135 100.371 75.0817C99.587 74.9905 100.614 73.951 101.263 73.8464C101.123 73.1328 97.3816 75.6172 97.2062 75.8105C96.3541 76.6874 97.9187 75.4557 98.1113 75.5504C98.1912 75.5912 98.726 76.4286 98.7916 75.6077C98.8109 75.3645 98.1444 75.5092 98.3995 75.2108C98.6557 74.9117 98.6943 75.2383 98.7284 75.24C98.8499 75.2427 99.1125 74.9359 99.1782 74.9419C100.182 75.0277 100.647 75.8609 99.0061 75.2687C98.8028 75.7876 99.9501 75.6277 99.6046 76.1189C99.1675 76.7276 98.4981 76.6328 98.4152 76.664C97.4236 77.0421 98.789 76.9174 97.614 77.4573C96.9551 77.7619 98.2536 76.4917 96.9265 77.444C95.8356 78.2306 96.5673 78.0115 96.7803 78.4996C96.8305 78.6136 96.3142 79.1472 97.1028 78.5445C97.0493 78.416 96.9922 78.2375 96.9741 78.0978C97.2328 78.0421 97.959 78.3739 98.0825 78.3191C98.6887 78.0455 98.4535 77.7773 98.9987 77.9124C98.5223 77.6834 99.0357 77.6686 99.1186 77.4965C99.4297 76.8591 98.6828 77.2018 100.092 76.8051C99.8257 76.726 99.5679 76.6462 99.3039 76.5668C99.4379 76.4679 99.576 76.3661 99.7083 76.2685C100.17 76.5262 100.858 75.9931 100.47 76.824C101.327 76.4118 101.601 76.1063 101.574 75.6838C101.569 75.603 101.676 75.4987 101.808 75.4024C101.725 75.3339 101.515 75.0909 101.515 75.044C101.519 74.6289 102.152 74.9209 102.174 75.1785C102.277 75.1229 102.361 75.0822 102.392 75.0686C102.584 74.983 102.358 75.3789 102.537 75.3443C102.595 75.3331 103.062 74.9704 103.118 75.0331C103.471 75.44 102.452 75.6515 104.246 74.8377C104.021 74.4043 103.326 74.9915 103.234 74.4333C103.147 73.8264 103.964 74.1782 103.684 73.5481C103.78 73.619 103.846 73.6869 103.946 73.7738C104.437 73.0957 104.761 73.5612 105.031 73.533C105.574 73.468 107.312 72.2879 105.453 72.9175C105.658 72.7249 105.884 72.55 106.094 72.3609C106.705 73.1749 106.331 72.9353 107.562 72.3185C107.831 72.1843 108.15 72.5099 108.104 71.9074C108.353 72.3658 108.915 71.6261 109.02 71.6335C109.682 71.6941 108.367 73.2284 107.655 72.5943C107.57 73.0772 107.313 72.6798 107.037 72.9348C106.64 73.3021 106.628 73.4197 105.916 73.4682C105.667 74.2193 108.061 72.3255 106.873 73.8817C105.679 75.4144 96.9375 81.7006 94.9785 83.2264C91.3744 85.9646 89.5288 87.4293 86.3066 89.8453C85.9863 90.0751 83.6987 91.9523 83.8256 91.1273C83.8403 91.0086 84.7091 90.0396 83.5701 90.377C83.9109 90.4416 83.5107 90.9827 83.4928 91.0337C82.9404 92.3054 83.5686 91.963 82.1572 93.1926ZM80.2698 89.3894C79.685 91.9576 80.3949 90.1225 81.1463 90.8078C81.2064 90.4815 81.267 90.1515 81.3286 89.8158C81.26 89.8948 81.1918 89.9723 81.1233 90.0506C81.1232 90.051 81.1231 90.0513 81.1231 90.0517C80.8384 89.8324 80.5541 89.6108 80.2698 89.3894ZM88.1449 47.2928C88.2401 47.4098 88.3355 47.5263 88.4266 47.6527C88.3355 47.9848 88.2438 48.3232 88.15 48.6699C88.0814 48.6151 88.0116 48.5617 87.943 48.5071C88.0158 48.0927 88.0869 47.6896 88.1449 47.2928ZM101.498 73.5411C102.081 73.5318 101.733 73.0894 102.426 72.9372C102.13 72.6367 101.832 72.3486 101.534 72.0539C101.148 72.3827 101.141 72.5766 100.637 72.7891C100.763 72.8655 100.89 72.9416 101.015 73.0194C101.074 72.9462 101.136 72.8663 101.194 72.7971C101.514 73.0314 100.83 73.5523 101.497 73.5428C101.497 73.5422 101.497 73.5417 101.498 73.5411ZM105.608 70.6391C105.862 70.5374 106.85 70.1359 106.872 69.9177C106.963 69.1642 104.689 71.0848 106.232 69.4635C106.18 69.4004 106.144 69.3281 106.1 69.2604C105.763 69.4453 105.402 69.651 105.055 69.8502C105.249 70.1078 105.41 70.3817 105.608 70.6391ZM81.5473 87.057C81.9021 86.827 83.272 85.4223 82.5472 85.5174C82.3294 85.5484 81.9721 86.4934 81.6865 86.6908C81.5074 86.8136 81.5159 86.4382 81.2515 86.7835C81.3451 86.8716 81.4419 86.975 81.5476 87.0557C81.5475 87.0561 81.5474 87.0566 81.5473 87.057ZM81.999 88.8477C82.2983 88.5402 82.5778 88.2346 82.885 87.9233C82.4279 87.8636 82.1035 88.3925 81.7768 88.0615C81.8484 87.9591 81.9176 87.8593 81.983 87.7624C82.114 87.7875 82.2446 87.8132 82.3757 87.8385C82.5019 87.4186 82.2713 87.4401 82.8338 87.0924C82.0916 86.7854 81.7786 86.5475 81.3107 87.8298C81.2458 87.3954 80.3079 86.5591 80.3552 87.6612C80.363 87.8665 80.8342 87.6242 80.8505 87.6451C81.1136 87.85 81.0321 88.1829 81.2886 88.3701C81.4031 88.4558 81.6368 88.2642 81.7944 88.3849C81.8689 88.4454 81.8131 88.8351 81.999 88.8477ZM80.3057 88.1024C80.2828 87.8665 79.6372 87.7921 79.3903 88.1238C79.0211 88.6279 80.0457 88.3427 80.3057 88.1024ZM88.1449 47.2905C88.1449 47.2913 88.1449 47.292 88.1449 47.2928C88.1446 47.2923 88.1442 47.2919 88.1438 47.2915C88.1442 47.2911 88.1445 47.2908 88.1449 47.2905ZM104.35 71.1892C104.513 70.882 104.91 70.6517 104.737 70.4475C104.891 70.4088 105.048 70.3683 105.203 70.329C105.158 70.2629 105.112 70.1973 105.068 70.1318C104.658 70.3399 104.254 70.5445 103.852 70.7469C104.016 70.8952 104.177 71.0464 104.35 71.1892ZM108.622 68.6336C109.13 68.335 108.519 68.3008 108.532 68.0839C108.546 67.8668 109.052 67.7052 108.864 67.5288C108.577 67.7049 108.272 67.8919 107.97 68.077C108.196 68.2553 108.402 68.453 108.623 68.6329C108.622 68.6331 108.622 68.6333 108.622 68.6336ZM82.3995 78.914C82.2556 79.2815 82.0119 79.0724 82.1972 79.8882C82.1973 79.8876 82.1974 79.8871 82.1975 79.8865C82.5474 79.1999 82.9049 78.3268 82.8292 77.4899C82.4571 77.9263 82.6249 78.3371 82.3995 78.914ZM99.9201 73.6116C99.9035 73.8856 100.649 73.6087 100.669 73.351C100.71 72.9288 99.9541 73.1894 99.9201 73.6116ZM83.1747 63.1665C82.6119 62.4683 81.6751 63.4487 81.7984 64.6495C81.8093 64.7537 82.149 64.0482 82.2404 64.2905C82.2494 64.3148 82.1629 64.7195 82.2377 64.8366C82.3127 64.9537 82.5459 64.8848 82.6073 65.066C82.7145 65.3833 82.308 65.994 82.4775 66.2447C82.5002 66.2781 82.8579 65.9219 82.8734 65.8974C83.1199 65.5076 82.8144 65.0395 82.8231 64.9745C82.8678 64.6398 83.1534 64.7412 83.2372 64.6691C83.3948 64.5332 83.3128 64.2325 83.3259 64.2147C83.6711 63.7567 83.3983 64.8926 83.4773 65.0676C83.6909 65.5373 84.0248 65.1933 84.0114 66.2312C84.0102 66.3286 83.7946 67.4684 84.3741 66.0851C84.57 69.0341 85.0125 64.726 84.9399 64.2439C84.9065 64.0197 84.5703 64.2921 84.4663 64.1418C84.2287 63.7959 84.2651 63.2824 83.8502 63.2573C82.9776 63.2055 83.4233 63.968 83.2012 64.3935C83.0236 64.3138 82.8455 64.2642 82.6789 64.1447C82.8997 64.3245 83.2173 63.2177 83.1764 63.1668C83.1758 63.1667 83.1753 63.1666 83.1747 63.1665ZM82.9089 70.5009C82.54 71.0918 83.088 71.141 82.6776 71.6694C83.0732 72.2674 83.2171 71.249 83.265 71.1356C83.4811 70.618 84.0064 70.7222 83.9401 70.1425C83.5951 70.2776 83.2528 70.3772 82.9089 70.5009ZM84.0923 65.0095C84.2922 65.4818 84.4193 64.7206 84.4769 64.6992C85.0901 64.4585 84.5872 66.7193 84.0923 65.0095ZM84.2292 86.37C84.4189 86.2491 84.1438 86.1245 84.2485 85.9462C84.349 85.7699 85.0245 85.5455 84.9136 85.4223C84.7965 85.3023 83.5535 85.7022 84.4893 84.8796C84.3992 84.8309 84.369 84.7668 84.3019 84.712C84.0227 84.9191 83.7523 85.1187 83.4868 85.3178C83.7959 85.419 84.1118 85.5329 84.41 85.6318C84.3884 85.9155 84.1409 85.7602 84.1329 85.7663C84.1331 85.7665 84.1333 85.7667 84.1335 85.767C83.8754 85.9898 83.8 86.6453 84.2292 86.37ZM80.9535 84.1607C80.3094 83.981 80.9517 84.6202 80.9965 84.8418C81.0409 85.064 80.7484 85.3048 81.0492 85.2478C81.3023 84.9491 81.0253 84.1812 80.9527 84.1605C80.9529 84.1606 80.9532 84.1606 80.9535 84.1607ZM82.3081 73.9549C82.3742 74.5152 82.5596 74.4594 82.2514 75.0767C82.4143 75.079 82.5806 75.082 82.7411 75.0839C82.8345 74.5679 82.3681 74.5244 82.6575 73.9581C82.7052 73.8652 83.0359 74.1397 82.9952 73.6757C82.7766 73.7706 82.5361 73.8633 82.3081 73.9549ZM82.4344 76.6974C82.5169 76.0828 81.3194 75.374 81.7011 76.5997C81.7584 76.7812 82.3727 77.1589 82.4344 76.6974ZM79.7615 90.0068C80.5872 89.3443 79.5361 89.9694 79.1956 90.0085C80.9802 88.2503 79.0213 90.2169 78.3845 89.9185C78.2653 90.284 78.1661 90.9799 78.7014 90.6319C78.936 90.4793 78.73 90.4009 78.7421 90.3907C79.1295 90.1031 79.3074 90.3781 79.7615 90.0068ZM83.0696 69.3908C83.0724 69.4317 83.3045 69.4088 83.327 69.5414C83.3492 69.674 83.145 69.9301 83.276 69.9818C83.4078 70.0335 83.6126 69.4842 83.5433 69.2928C83.473 69.1014 83.0461 69.0211 83.0696 69.3908ZM81.8282 73.2898C81.8967 73.8379 82.8607 73.1293 82.8767 73.0151C83.0074 72.0136 82.0813 73.3642 81.8282 73.2898ZM78.9977 92.6747C79.4782 91.5858 78.4408 91.5276 77.4981 92.0405L78.7633 92.5517C78.7705 92.5431 78.7776 92.5344 78.7847 92.5258C78.7149 92.4096 78.6456 92.2902 78.5765 92.1744C78.6793 92.3015 78.7787 92.4459 78.8693 92.5704L77.4089 91.9803C77.3956 91.7651 77.4043 91.5772 77.3554 91.5143C77.3114 91.4501 77.2315 91.4652 77.0571 91.7431L79.287 92.6443C79.3036 92.4695 79.2977 92.1859 79.2657 91.7436C78.964 92.7201 78.9685 91.86 78.9397 91.8477C78.4081 91.6908 78.2304 92.1027 78.003 92.4173L78.1383 92.472C78.4083 92.3225 78.6965 92.2853 78.9971 92.6754C78.9973 92.6751 78.9975 92.6749 78.9977 92.6747ZM83.5968 67.74C83.6887 67.1919 83.7652 65.7478 83.2243 66.3339C83.3485 66.8022 83.473 67.27 83.5968 67.74ZM95.3135 80.102C95.8206 80.0532 96.1548 79.8186 96.6112 79.4866C95.9903 79.4752 96.2408 79.2536 96.3325 79.0841C96.4719 78.8279 95.959 79.1919 95.9449 79.1723C95.7619 78.8831 96.0562 78.6166 95.3191 79.1321C95.4339 78.9087 95.5477 78.6851 95.6667 78.4602C95.0853 78.8395 94.8358 78.7405 94.3201 78.7645C95.0521 79.0695 94.3462 79.0486 94.1148 79.6116C94.0002 79.8925 95.0464 80.132 95.3149 80.101C95.3144 80.1013 95.3139 80.1016 95.3135 80.102ZM79.9507 91.9065C79.9672 91.7271 79.9359 91.5354 79.9359 91.3501C80.0262 91.2505 80.1296 91.1426 80.2156 91.049C80.2982 91.1175 80.382 91.1916 80.464 91.2553C80.6168 91.1617 80.4682 91.0959 80.4991 91.0502C80.4995 91.0507 80.4998 91.0511 80.5002 91.0515C80.945 90.4037 81.2074 90.2148 81.879 90.0845C81.6722 89.8336 81.4653 89.5828 81.2584 89.332C81.1772 89.4392 81.0877 89.5527 80.9996 89.6655C81.055 89.8469 81.1115 90.0276 81.1695 90.207C80.9907 90.2315 80.8111 90.2582 80.6251 90.2904C80.5686 90.4213 80.4997 90.568 80.4619 90.6818C79.3789 90.418 80.8849 89.9315 80.6416 89.6489C80.5001 89.4457 79.3933 90.4128 79.3522 90.6856C79.3489 90.722 80.0251 91.0206 79.4103 91.1048C79.3127 91.121 78.2799 90.0737 78.6787 91.3382C78.7383 91.5157 79.5803 91.9614 79.9507 91.9065ZM84.1957 88.9783C82.9855 88.7306 85.9354 87.7011 84.4554 87.8696C84.48 87.3079 84.4299 87.3533 83.908 87.273C83.8615 87.2656 83.989 87.0182 83.9632 87.0192C83.5703 87.0553 83.2919 87.4131 83.0577 87.1102C82.9954 87.1845 82.937 87.253 82.8765 87.3262C83.4004 87.3751 83.0792 87.933 83.0658 88.3318C83.0637 88.509 83.2912 88.384 83.2922 88.5369C83.291 88.5938 82.9607 88.7427 83.0292 88.8498C83.1847 89.0914 83.5902 89.262 84.0212 89.1914C84.0214 89.1917 84.0216 89.1919 84.0218 89.1921C84.0813 89.1215 84.1357 89.05 84.1957 88.9783ZM79.1801 82.111C79.7139 82.064 79.9554 81.5457 80.0211 82.6352C80.1306 82.6012 80.2396 82.5655 80.3491 82.5315C80.3711 82.3538 80.3924 82.181 80.416 81.9995C79.0094 81.1908 80.8759 80.512 79.7008 80.9503C79.5734 80.9964 79.6288 81.4408 79.3871 80.9709C79.3867 80.9714 79.3863 80.9719 79.3859 80.9724C79.3806 81.5698 79.5481 81.6769 79.1801 82.111ZM78.856 86.0412C79.694 87.5647 79.7801 84.2961 79.401 84.7823C79.3684 84.8172 79.356 86.239 78.856 86.0412ZM79.7975 75.1828C79.6744 75.7779 80.2466 75.9179 80.4655 75.8943C80.6852 75.8708 80.5462 75.4199 80.5885 75.372C80.7275 75.2167 80.7347 75.5989 80.923 75.3986C80.9845 75.3317 81.3729 74.3259 81.3561 74.275C81.2638 73.9865 80.7186 74.2894 80.6771 74.2043C80.5408 73.9267 80.8478 73.6351 80.6063 73.5191C80.0913 73.2703 80.5512 73.9943 80.542 74.1011C80.5123 74.4233 80.2121 74.3422 80.1094 74.5691C80.0067 74.7975 80.0838 74.9723 80.0254 75.1792C80.0059 75.248 79.8047 75.1528 79.7975 75.1828ZM80.6747 77.3716C80.3461 76.6685 79.6026 78.1101 79.6742 78.3055C79.8865 78.8873 80.8311 77.71 80.6747 77.3716ZM81.7411 89.1265C81.4911 89.7459 82.7042 89.0948 82.9199 88.7615C82.7898 88.6924 81.8174 88.9196 81.7411 89.1265ZM78.8219 92.8878C78.916 92.6679 78.6311 92.5386 78.3219 92.5958L77.785 92.3788C77.9476 92.2469 78.0876 92.0621 78.1128 91.894C77.6875 91.5563 77.7382 91.8139 77.6694 92.0907C77.6051 92.3481 77.2493 91.9897 77.2082 92.2769L78.8076 92.9232C78.812 92.9154 78.8164 92.9041 78.8219 92.8878ZM81.4506 68.7931C81.4236 68.9046 81.4948 70.7972 81.8389 69.7768C81.8649 69.6988 82.0186 68.4101 81.9629 68.3011C81.8503 68.0812 81.5223 68.5051 81.4506 68.7931ZM76.9514 89.7235C77.3094 90.072 77.2566 90.3391 77.7786 90.1719C77.7787 90.1715 77.7787 90.1712 77.7788 90.1708C77.8044 90.8809 76.8182 90.7596 76.8127 90.9127C76.7916 91.4608 77.5764 91.0774 77.7457 91.452C77.668 90.6386 78.1008 90.9259 78.2315 90.3591C78.2606 90.2315 78.0734 89.6561 77.9128 89.5468C77.7518 89.4385 77.1808 89.6174 76.9514 89.7235ZM81.7968 66.1987C81.5343 66.7859 82.0959 67.4645 82.3487 66.629C82.4725 66.2219 81.9568 65.8403 81.7968 66.1987ZM107.657 72.1168C107.484 72.0197 107.303 71.9289 107.121 71.8398C107.299 71.6737 107.458 71.5182 107.627 71.3569C107.506 71.5019 107.388 71.6438 107.263 71.7902C107.656 71.6077 107.991 71.7708 107.658 72.1162C107.657 72.1164 107.657 72.1166 107.657 72.1168ZM120.262 62.7643C120.548 62.6929 120.401 62.0288 120.332 62.05C119.857 62.1726 119.886 62.8389 120.262 62.7643ZM83.4002 89.8312C83.9856 89.4593 83.0956 89.0783 82.7063 89.3156C83.0213 89.2718 83.0512 90.0571 83.4002 89.8312ZM116.042 66.5102C115.948 66.49 115.853 66.47 115.753 66.4542C115.99 66.4015 116.061 66.4329 116.042 66.5102ZM80.6598 68.9542C80.5766 69.0512 80.3841 69.8429 80.4449 69.9649C80.5731 70.2186 81.1447 69.6745 81.0663 69.2822C81.0581 69.2388 80.7429 68.8577 80.6595 68.9559C80.6596 68.9554 80.6597 68.9548 80.6598 68.9542ZM108.641 71.8662C108.636 71.86 108.632 71.8531 108.63 71.8459C108.633 71.8527 108.638 71.8592 108.641 71.8662ZM111.33 50.314C111.329 50.3279 111.327 50.3409 111.321 50.3524C111.325 50.3403 111.326 50.327 111.33 50.314ZM78.9637 74.4763C78.1182 74.6046 78.4355 75.2942 78.9154 74.8769C78.9409 74.8533 78.9508 74.541 78.9637 74.4763Z" fill="white"/>
</svg>
